<svg width="100" height="30" viewBox="0 0 100 30" fill="none" xmlns="http://www.w3.org/2000/svg">
<rect width="100" height="30" rx="5" fill="#68217A"/>
<path d="M47.6502 13.3281H45.7837C45.7496 13.0866 45.68 12.8722 45.5749 12.6847C45.4698 12.4943 45.3349 12.3324 45.1701 12.1989C45.0053 12.0653 44.815 11.9631 44.5991 11.892C44.386 11.821 44.1545 11.7855 43.9045 11.7855C43.4528 11.7855 43.0593 11.8977 42.7241 12.1222C42.3888 12.3437 42.1289 12.6676 41.9442 13.0938C41.7596 13.517 41.6673 14.0312 41.6673 14.6364C41.6673 15.2585 41.7596 15.7812 41.9442 16.2045C42.1317 16.6278 42.3931 16.9474 42.7283 17.1634C43.0636 17.3793 43.4513 17.4872 43.8917 17.4872C44.1388 17.4872 44.3675 17.4545 44.5778 17.3892C44.7908 17.3239 44.9798 17.2287 45.1445 17.1037C45.3093 16.9759 45.4457 16.821 45.5536 16.6392C45.6644 16.4574 45.7411 16.25 45.7837 16.017L47.6502 16.0256C47.6019 16.4261 47.4812 16.8125 47.288 17.1847C47.0977 17.554 46.8406 17.8849 46.5167 18.1776C46.1957 18.4673 45.8121 18.6974 45.3661 18.8679C44.9229 19.0355 44.4215 19.1193 43.8619 19.1193C43.0835 19.1193 42.3874 18.9432 41.7738 18.5909C41.163 18.2386 40.68 17.7287 40.3249 17.0611C39.9727 16.3935 39.7965 15.5852 39.7965 14.6364C39.7965 13.6847 39.9755 12.875 40.3335 12.2074C40.6914 11.5398 41.1772 11.0312 41.7908 10.6818C42.4045 10.3295 43.0948 10.1534 43.8619 10.1534C44.3675 10.1534 44.8363 10.2244 45.2681 10.3665C45.7028 10.5085 46.0877 10.7159 46.4229 10.9886C46.7582 11.2585 47.0309 11.5895 47.2411 11.9815C47.4542 12.3736 47.5906 12.8224 47.6502 13.3281ZM56.4851 12.7827C56.451 12.4389 56.3047 12.1719 56.0462 11.9815C55.7876 11.7912 55.4368 11.696 54.9936 11.696C54.6925 11.696 54.4382 11.7386 54.2308 11.8239C54.0234 11.9062 53.8643 12.0213 53.7536 12.169C53.6456 12.3168 53.5916 12.4844 53.5916 12.6719C53.5859 12.8281 53.6186 12.9645 53.6896 13.081C53.7635 13.1974 53.8643 13.2983 53.9922 13.3835C54.12 13.4659 54.2678 13.5384 54.4354 13.6009C54.603 13.6605 54.782 13.7116 54.9723 13.7543L55.7564 13.9418C56.1371 14.027 56.4865 14.1406 56.8047 14.2827C57.1229 14.4247 57.3984 14.5994 57.6314 14.8068C57.8643 15.0142 58.0447 15.2585 58.1726 15.5398C58.3033 15.821 58.37 16.1435 58.3729 16.5071C58.37 17.0412 58.2337 17.5043 57.9638 17.8963C57.6967 18.2855 57.3104 18.5881 56.8047 18.804C56.3018 19.017 55.6953 19.1236 54.9851 19.1236C54.2805 19.1236 53.6669 19.0156 53.1442 18.7997C52.6243 18.5838 52.218 18.2642 51.9254 17.8409C51.6357 17.4148 51.4837 16.8878 51.4695 16.2599H53.255C53.2749 16.5526 53.3587 16.7969 53.5064 16.9929C53.657 17.1861 53.8572 17.3324 54.1072 17.4318C54.3601 17.5284 54.6456 17.5767 54.9638 17.5767C55.2763 17.5767 55.5476 17.5312 55.7777 17.4403C56.0107 17.3494 56.1911 17.223 56.3189 17.0611C56.4467 16.8991 56.5107 16.7131 56.5107 16.5028C56.5107 16.3068 56.4524 16.142 56.3359 16.0085C56.2223 15.875 56.0547 15.7614 55.8331 15.6676C55.6143 15.5739 55.3459 15.4886 55.0277 15.4119L54.0774 15.1733C53.3416 14.9943 52.7607 14.7145 52.3345 14.3338C51.9084 13.9531 51.6967 13.4403 51.6996 12.7955C51.6967 12.267 51.8374 11.8054 52.1214 11.4105C52.4084 11.0156 52.8018 10.7074 53.3018 10.4858C53.8018 10.2642 54.37 10.1534 55.0064 10.1534C55.6541 10.1534 56.2195 10.2642 56.7024 10.4858C57.1882 10.7074 57.5661 11.0156 57.8359 11.4105C58.1058 11.8054 58.245 12.2628 58.2536 12.7827H56.4851ZM61.3952 15.2159V19H59.5799V10.2727H61.3441V13.6094H61.4208C61.5685 13.223 61.8072 12.9205 62.1367 12.7017C62.4663 12.4801 62.8796 12.3693 63.3768 12.3693C63.8313 12.3693 64.2276 12.4688 64.5657 12.6676C64.9066 12.8636 65.1708 13.1463 65.3583 13.5156C65.5487 13.8821 65.6424 14.321 65.6396 14.8324V19H63.8242V15.1562C63.8271 14.7528 63.7248 14.4389 63.5174 14.2145C63.3129 13.9901 63.0259 13.8778 62.6566 13.8778C62.4094 13.8778 62.1907 13.9304 62.0004 14.0355C61.8129 14.1406 61.6651 14.294 61.5572 14.4957C61.4521 14.6946 61.3981 14.9347 61.3952 15.2159ZM68.9347 19.1236C68.517 19.1236 68.1449 19.0511 67.8182 18.9062C67.4915 18.7585 67.233 18.5412 67.0426 18.2543C66.8551 17.9645 66.7614 17.6037 66.7614 17.1719C66.7614 16.8082 66.8281 16.5028 66.9616 16.2557C67.0952 16.0085 67.277 15.8097 67.5071 15.6591C67.7372 15.5085 67.9986 15.3949 68.2912 15.3182C68.5866 15.2415 68.8963 15.1875 69.2202 15.1562C69.6009 15.1165 69.9077 15.0795 70.1406 15.0455C70.3736 15.0085 70.5426 14.9545 70.6477 14.8835C70.7528 14.8125 70.8054 14.7074 70.8054 14.5682V14.5426C70.8054 14.2727 70.7202 14.0639 70.5497 13.9162C70.3821 13.7685 70.1435 13.6946 69.8338 13.6946C69.5071 13.6946 69.2472 13.767 69.054 13.9119C68.8608 14.054 68.733 14.233 68.6705 14.4489L66.9915 14.3125C67.0767 13.9148 67.2443 13.571 67.4943 13.2812C67.7443 12.9886 68.0668 12.7642 68.4616 12.608C68.8594 12.4489 69.3196 12.3693 69.8423 12.3693C70.206 12.3693 70.554 12.4119 70.8864 12.4972C71.2216 12.5824 71.5185 12.7145 71.777 12.8935C72.0384 13.0724 72.2443 13.3026 72.3949 13.5838C72.5455 13.8622 72.6207 14.196 72.6207 14.5852V19H70.8991V18.0923H70.848C70.7429 18.2969 70.6023 18.4773 70.4261 18.6335C70.25 18.7869 70.0384 18.9077 69.7912 18.9957C69.544 19.081 69.2585 19.1236 68.9347 19.1236ZM69.4545 17.8707C69.7216 17.8707 69.9574 17.8182 70.1619 17.7131C70.3665 17.6051 70.527 17.4602 70.6435 17.2784C70.7599 17.0966 70.8182 16.8906 70.8182 16.6605V15.9659C70.7614 16.0028 70.6832 16.0369 70.5838 16.0682C70.4872 16.0966 70.3778 16.1236 70.2557 16.1491C70.1335 16.1719 70.0114 16.1932 69.8892 16.2131C69.767 16.2301 69.6562 16.2457 69.5568 16.2599C69.3438 16.2912 69.1577 16.3409 68.9986 16.4091C68.8395 16.4773 68.7159 16.5696 68.6278 16.6861C68.5398 16.7997 68.4957 16.9418 68.4957 17.1122C68.4957 17.3594 68.5852 17.5483 68.7642 17.679C68.946 17.8068 69.1761 17.8707 69.4545 17.8707ZM74.0291 19V12.4545H75.7891V13.5966H75.8572C75.9766 13.1903 76.1768 12.8835 76.4581 12.6761C76.7393 12.4659 77.0632 12.3608 77.4297 12.3608C77.5206 12.3608 77.6186 12.3665 77.7237 12.3778C77.8288 12.3892 77.9212 12.4048 78.0007 12.4247V14.0355C77.9155 14.0099 77.7976 13.9872 77.647 13.9673C77.4964 13.9474 77.3587 13.9375 77.2337 13.9375C76.9666 13.9375 76.728 13.9957 76.5178 14.1122C76.3104 14.2259 76.1456 14.3849 76.0234 14.5895C75.9041 14.794 75.8445 15.0298 75.8445 15.2969V19H74.0291ZM78.9393 21.4545V12.4545H80.729V13.554H80.81C80.8896 13.3778 81.0046 13.1989 81.1552 13.017C81.3086 12.8324 81.5075 12.679 81.7518 12.5568C81.9989 12.4318 82.3058 12.3693 82.6722 12.3693C83.1495 12.3693 83.5898 12.4943 83.9933 12.7443C84.3967 12.9915 84.7191 13.3651 84.9606 13.8651C85.2021 14.3622 85.3228 14.9858 85.3228 15.7358C85.3228 16.4659 85.2049 17.0824 84.9691 17.5852C84.7362 18.0852 84.418 18.4645 84.0146 18.723C83.614 18.9787 83.1651 19.1065 82.668 19.1065C82.3157 19.1065 82.016 19.0483 81.7688 18.9318C81.5245 18.8153 81.3242 18.669 81.168 18.4929C81.0117 18.3139 80.8924 18.1335 80.81 17.9517H80.7546V21.4545H78.9393ZM80.7163 15.7273C80.7163 16.1165 80.7702 16.456 80.8782 16.7457C80.9862 17.0355 81.1424 17.2614 81.3469 17.4233C81.5515 17.5824 81.8001 17.6619 82.0927 17.6619C82.3881 17.6619 82.6381 17.581 82.8427 17.419C83.0472 17.2543 83.2021 17.027 83.3072 16.7372C83.4151 16.4446 83.4691 16.108 83.4691 15.7273C83.4691 15.3494 83.4165 15.017 83.3114 14.7301C83.2063 14.4432 83.0515 14.2187 82.8469 14.0568C82.6424 13.8949 82.391 13.8139 82.0927 13.8139C81.7972 13.8139 81.5472 13.892 81.3427 14.0483C81.141 14.2045 80.9862 14.4261 80.8782 14.7131C80.7702 15 80.7163 15.3381 80.7163 15.7273Z" fill="white"/>
<path d="M21.1677 14.5041H20.2188V15.4422H21.1677V14.5041Z" fill="white"/>
<path fill-rule="evenodd" clip-rule="evenodd" d="M23.7791 9.99152C23.9262 10.2466 23.9989 10.5437 23.9991 10.88C24 13.6271 24 19.1198 24 19.1198L24 19.1234C23.9995 19.4509 23.9295 19.7411 23.7896 19.9914C23.645 20.2495 23.4256 20.4656 23.1286 20.6355C22.1211 21.2098 21.1132 21.7832 20.1053 22.3567C19.5842 22.6532 19.0631 22.9497 18.5421 23.2463C17.6737 23.7407 16.8054 24.2353 15.9376 24.7307C15.2916 25.0994 14.6654 25.086 14.0241 24.7119C13.9521 24.6699 13.8583 24.6157 13.7458 24.551C13.0709 24.1625 11.7228 23.3957 10.3684 22.626C10.1609 22.508 9.95332 22.3901 9.74794 22.2734L9.69124 22.2411C9.25358 21.9924 8.8272 21.7501 8.43545 21.5274C7.78126 21.1555 7.22367 20.838 6.87147 20.6364C6.85291 20.6257 6.83465 20.6149 6.81669 20.604C6.54734 20.4392 6.34599 20.2343 6.21044 19.9921C6.06979 19.7408 6 19.4495 6 19.1206C6.00046 17.747 6.00046 16.3735 6.00046 14.9999C6.00046 13.6264 6.00046 12.2529 6.00092 10.8794C6.00106 10.2122 6.28622 9.69896 6.87224 9.36357C7.43765 9.03981 8.53231 8.41768 9.7062 7.75052L9.70623 7.75051L9.70661 7.75029C11.487 6.73843 13.4496 5.62304 14.0244 5.28793C14.6654 4.91404 15.2916 4.9006 15.9374 5.2692C17.3062 6.05049 18.6759 6.82997 20.0457 7.60945L20.0462 7.60973C21.0736 8.19434 22.1009 8.77896 23.1278 9.36434C23.4181 9.53053 23.6346 9.74073 23.7791 9.99152ZM15.0469 8.38558C17.522 8.38558 19.6829 9.71447 20.8404 11.6897L20.8291 11.6707L17.917 13.3284C17.3433 12.368 16.2914 11.7199 15.0849 11.7065L15.0469 11.7063C13.2069 11.7063 11.7152 13.1809 11.7152 14.9999C11.7152 15.5948 11.8757 16.1524 12.1546 16.634C12.7289 17.6251 13.8085 18.2936 15.0469 18.2936C16.2829 18.2936 17.3612 17.6275 17.9362 16.639L20.8438 18.3042C19.6991 20.2628 17.5677 21.5876 15.1214 21.614L15.0469 21.6144C12.564 21.6144 10.3969 20.2773 9.24236 18.2916C8.67873 17.3222 8.35624 16.1984 8.35624 14.9999C8.35624 11.347 11.3517 8.38558 15.0469 8.38558ZM17.9362 16.639L17.9361 16.6389L17.95 16.6149C17.9454 16.6229 17.9408 16.631 17.9362 16.639ZM20.2188 13.097V14.0351H21.1677V13.097H21.6421V14.0351L22.5911 14.0351V14.5041L21.6421 14.5041V15.4422L22.5911 15.4422V15.9113L21.6421 15.9113V16.8494H21.1677V15.9113H20.2188V16.8494H19.7443V15.9113H18.7954V15.4422H19.7443V14.5041H18.7954V14.0351H19.7443V13.097H20.2188Z" fill="white"/>
</svg>
