<svg width="100" height="30" viewBox="0 0 100 30" fill="none" xmlns="http://www.w3.org/2000/svg">
<rect width="100" height="30" rx="5" fill="#2965F1"/>
<path d="M58.5838 13.3281H56.7173C56.6832 13.0866 56.6136 12.8722 56.5085 12.6847C56.4034 12.4943 56.2685 12.3324 56.1037 12.1989C55.9389 12.0653 55.7486 11.9631 55.5327 11.892C55.3196 11.821 55.0881 11.7855 54.8381 11.7855C54.3864 11.7855 53.9929 11.8977 53.6577 12.1222C53.3224 12.3437 53.0625 12.6676 52.8778 13.0938C52.6932 13.517 52.6009 14.0312 52.6009 14.6364C52.6009 15.2585 52.6932 15.7812 52.8778 16.2045C53.0653 16.6278 53.3267 16.9474 53.6619 17.1634C53.9972 17.3793 54.3849 17.4872 54.8253 17.4872C55.0724 17.4872 55.3011 17.4545 55.5114 17.3892C55.7244 17.3239 55.9134 17.2287 56.0781 17.1037C56.2429 16.9759 56.3793 16.821 56.4872 16.6392C56.598 16.4574 56.6747 16.25 56.7173 16.017L58.5838 16.0256C58.5355 16.4261 58.4148 16.8125 58.2216 17.1847C58.0313 17.554 57.7741 17.8849 57.4503 18.1776C57.1293 18.4673 56.7457 18.6974 56.2997 18.8679C55.8565 19.0355 55.3551 19.1193 54.7955 19.1193C54.017 19.1193 53.321 18.9432 52.7074 18.5909C52.0966 18.2386 51.6136 17.7287 51.2585 17.0611C50.9062 16.3935 50.7301 15.5852 50.7301 14.6364C50.7301 13.6847 50.9091 12.875 51.267 12.2074C51.625 11.5398 52.1108 11.0312 52.7244 10.6818C53.3381 10.3295 54.0284 10.1534 54.7955 10.1534C55.3011 10.1534 55.7699 10.2244 56.2017 10.3665C56.6364 10.5085 57.0213 10.7159 57.3565 10.9886C57.6918 11.2585 57.9645 11.5895 58.1747 11.9815C58.3878 12.3736 58.5241 12.8224 58.5838 13.3281ZM64.6413 12.7827C64.6072 12.4389 64.4609 12.1719 64.2024 11.9815C63.9439 11.7912 63.593 11.696 63.1499 11.696C62.8487 11.696 62.5945 11.7386 62.3871 11.8239C62.1797 11.9062 62.0206 12.0213 61.9098 12.169C61.8018 12.3168 61.7479 12.4844 61.7479 12.6719C61.7422 12.8281 61.7749 12.9645 61.8459 13.081C61.9197 13.1974 62.0206 13.2983 62.1484 13.3835C62.2763 13.4659 62.424 13.5384 62.5916 13.6009C62.7592 13.6605 62.9382 13.7116 63.1286 13.7543L63.9126 13.9418C64.2933 14.027 64.6428 14.1406 64.9609 14.2827C65.2791 14.4247 65.5547 14.5994 65.7876 14.8068C66.0206 15.0142 66.201 15.2585 66.3288 15.5398C66.4595 15.821 66.5263 16.1435 66.5291 16.5071C66.5263 17.0412 66.3899 17.5043 66.12 17.8963C65.853 18.2855 65.4666 18.5881 64.9609 18.804C64.4581 19.017 63.8516 19.1236 63.1413 19.1236C62.4368 19.1236 61.8232 19.0156 61.3004 18.7997C60.7805 18.5838 60.3743 18.2642 60.0817 17.8409C59.7919 17.4148 59.6399 16.8878 59.6257 16.2599H61.4112C61.4311 16.5526 61.5149 16.7969 61.6626 16.9929C61.8132 17.1861 62.0135 17.3324 62.2635 17.4318C62.5163 17.5284 62.8018 17.5767 63.12 17.5767C63.4325 17.5767 63.7038 17.5312 63.9339 17.4403C64.1669 17.3494 64.3473 17.223 64.4751 17.0611C64.603 16.8991 64.6669 16.7131 64.6669 16.5028C64.6669 16.3068 64.6087 16.142 64.4922 16.0085C64.3786 15.875 64.2109 15.7614 63.9893 15.6676C63.7706 15.5739 63.5021 15.4886 63.1839 15.4119L62.2337 15.1733C61.4979 14.9943 60.9169 14.7145 60.4908 14.3338C60.0646 13.9531 59.853 13.4403 59.8558 12.7955C59.853 12.267 59.9936 11.8054 60.2777 11.4105C60.5646 11.0156 60.9581 10.7074 61.4581 10.4858C61.9581 10.2642 62.5263 10.1534 63.1626 10.1534C63.8104 10.1534 64.3757 10.2642 64.8587 10.4858C65.3445 10.7074 65.7223 11.0156 65.9922 11.4105C66.2621 11.8054 66.4013 12.2628 66.4098 12.7827H64.6413ZM72.5046 12.7827C72.4705 12.4389 72.3242 12.1719 72.0657 11.9815C71.8072 11.7912 71.4563 11.696 71.0131 11.696C70.712 11.696 70.4577 11.7386 70.2504 11.8239C70.043 11.9062 69.8839 12.0213 69.7731 12.169C69.6651 12.3168 69.6112 12.4844 69.6112 12.6719C69.6055 12.8281 69.6381 12.9645 69.7092 13.081C69.783 13.1974 69.8839 13.2983 70.0117 13.3835C70.1396 13.4659 70.2873 13.5384 70.4549 13.6009C70.6225 13.6605 70.8015 13.7116 70.9918 13.7543L71.7759 13.9418C72.1566 14.027 72.506 14.1406 72.8242 14.2827C73.1424 14.4247 73.418 14.5994 73.6509 14.8068C73.8839 15.0142 74.0643 15.2585 74.1921 15.5398C74.3228 15.821 74.3896 16.1435 74.3924 16.5071C74.3896 17.0412 74.2532 17.5043 73.9833 17.8963C73.7163 18.2855 73.3299 18.5881 72.8242 18.804C72.3214 19.017 71.7148 19.1236 71.0046 19.1236C70.3001 19.1236 69.6864 19.0156 69.1637 18.7997C68.6438 18.5838 68.2376 18.2642 67.945 17.8409C67.6552 17.4148 67.5032 16.8878 67.489 16.2599H69.2745C69.2944 16.5526 69.3782 16.7969 69.5259 16.9929C69.6765 17.1861 69.8768 17.3324 70.1268 17.4318C70.3796 17.5284 70.6651 17.5767 70.9833 17.5767C71.2958 17.5767 71.5671 17.5312 71.7972 17.4403C72.0302 17.3494 72.2106 17.223 72.3384 17.0611C72.4663 16.8991 72.5302 16.7131 72.5302 16.5028C72.5302 16.3068 72.4719 16.142 72.3555 16.0085C72.2418 15.875 72.0742 15.7614 71.8526 15.6676C71.6339 15.5739 71.3654 15.4886 71.0472 15.4119L70.0969 15.1733C69.3612 14.9943 68.7802 14.7145 68.354 14.3338C67.9279 13.9531 67.7163 13.4403 67.7191 12.7955C67.7163 12.267 67.8569 11.8054 68.141 11.4105C68.4279 11.0156 68.8214 10.7074 69.3214 10.4858C69.8214 10.2642 70.3896 10.1534 71.0259 10.1534C71.6737 10.1534 72.239 10.2642 72.7219 10.4858C73.2077 10.7074 73.5856 11.0156 73.8555 11.4105C74.1254 11.8054 74.2646 12.2628 74.2731 12.7827H72.5046Z" fill="white"/>
<path d="M24 5L22.3122 23.0554L14.9999 25L7.68741 23.0554L6 5H24ZM20.5991 8.67129H14.9933H9.28823L9.56107 10.8516H14.9933H15.2984L14.9933 10.9771L9.75961 13.13L9.93318 15.2612L14.9933 15.2774L17.7054 15.2859L17.5318 18.1276L14.9933 18.8335V18.8313L14.9725 18.837L12.5209 18.2258L12.3721 16.4618H12.364H10.0901H10.0821L10.3797 19.8671L14.9933 21.2147V21.2122L15.0017 21.2147L19.5906 19.8917L20.1858 13.13H14.9933H14.9805L14.9933 13.1245L20.376 10.8516L20.5991 8.67129Z" fill="white"/>
</svg>
