<svg width="100" height="30" viewBox="0 0 100 30" fill="none" xmlns="http://www.w3.org/2000/svg">
<rect width="100" height="30" rx="5" fill="#353535"/>
<path d="M45.364 19V10.2727H51.1424V11.794H47.2092V13.8736H50.7589V15.3949H47.2092V19H45.364ZM52.3494 19V12.4545H54.1648V19H52.3494ZM53.2614 11.6108C52.9915 11.6108 52.7599 11.5213 52.5668 11.3423C52.3764 11.1605 52.2812 10.9432 52.2812 10.6903C52.2812 10.4403 52.3764 10.2259 52.5668 10.0469C52.7599 9.86506 52.9915 9.77415 53.2614 9.77415C53.5313 9.77415 53.7614 9.86506 53.9517 10.0469C54.1449 10.2259 54.2415 10.4403 54.2415 10.6903C54.2415 10.9432 54.1449 11.1605 53.9517 11.3423C53.7614 11.5213 53.5313 11.6108 53.2614 11.6108ZM58.5678 21.5909C57.9798 21.5909 57.4755 21.5099 57.055 21.348C56.6374 21.1889 56.305 20.9716 56.0579 20.696C55.8107 20.4205 55.6502 20.1108 55.5763 19.767L57.2553 19.5412C57.3065 19.6719 57.3874 19.794 57.4982 19.9077C57.609 20.0213 57.7553 20.1122 57.9371 20.1804C58.1218 20.2514 58.3462 20.2869 58.6104 20.2869C59.0053 20.2869 59.3306 20.1903 59.5863 19.9972C59.8448 19.8068 59.9741 19.4872 59.9741 19.0384V17.8409H59.8974C59.8178 18.0227 59.6985 18.1946 59.5394 18.3565C59.3803 18.5185 59.1758 18.6506 58.9258 18.7528C58.6758 18.8551 58.3775 18.9062 58.0309 18.9062C57.5394 18.9062 57.092 18.7926 56.6886 18.5653C56.288 18.3352 55.9684 17.9844 55.7298 17.5128C55.494 17.0384 55.3761 16.4389 55.3761 15.7145C55.3761 14.973 55.4968 14.3537 55.7383 13.8565C55.9798 13.3594 56.3008 12.9872 56.7013 12.7401C57.1048 12.4929 57.5465 12.3693 58.0266 12.3693C58.3931 12.3693 58.6999 12.4318 58.9471 12.5568C59.1942 12.679 59.3931 12.8324 59.5437 13.017C59.6971 13.1989 59.815 13.3778 59.8974 13.554H59.9656V12.4545H61.7681V19.0639C61.7681 19.6207 61.6317 20.0866 61.359 20.4616C61.0863 20.8366 60.7085 21.1179 60.2255 21.3054C59.7454 21.4957 59.1928 21.5909 58.5678 21.5909ZM58.6062 17.5426C58.8988 17.5426 59.146 17.4702 59.3477 17.3253C59.5522 17.1776 59.7085 16.9673 59.8164 16.6946C59.9272 16.419 59.9826 16.0895 59.9826 15.706C59.9826 15.3224 59.9286 14.9901 59.8207 14.7088C59.7127 14.4247 59.5565 14.2045 59.3519 14.0483C59.1474 13.892 58.8988 13.8139 58.6062 13.8139C58.3079 13.8139 58.0565 13.8949 57.8519 14.0568C57.6474 14.2159 57.4925 14.4375 57.3874 14.7216C57.2823 15.0057 57.2298 15.3338 57.2298 15.706C57.2298 16.0838 57.2823 16.4105 57.3874 16.6861C57.4954 16.9588 57.6502 17.1705 57.8519 17.321C58.0565 17.4687 58.3079 17.5426 58.6062 17.5426ZM63.2127 19V12.4545H64.9428V13.6094H65.0195C65.1559 13.2259 65.3832 12.9233 65.7013 12.7017C66.0195 12.4801 66.4002 12.3693 66.8434 12.3693C67.2923 12.3693 67.6744 12.4815 67.9897 12.706C68.305 12.9276 68.5153 13.2287 68.6204 13.6094H68.6886C68.8221 13.2344 69.0636 12.9347 69.413 12.7102C69.7653 12.483 70.1815 12.3693 70.6616 12.3693C71.2724 12.3693 71.7681 12.5639 72.1488 12.9531C72.5323 13.3395 72.7241 13.8878 72.7241 14.598V19H70.913V14.956C70.913 14.5923 70.8164 14.3196 70.6232 14.1378C70.43 13.956 70.1886 13.8651 69.8988 13.8651C69.5692 13.8651 69.3121 13.9702 69.1275 14.1804C68.9428 14.3878 68.8505 14.6619 68.8505 15.0028V19H67.0906V14.9176C67.0906 14.5966 66.9982 14.3409 66.8136 14.1506C66.6317 13.9602 66.3917 13.8651 66.0934 13.8651C65.8917 13.8651 65.7099 13.9162 65.5479 14.0185C65.3888 14.1179 65.2624 14.2585 65.1687 14.4403C65.0749 14.6193 65.0281 14.8295 65.0281 15.071V19H63.2127ZM76.0245 19.1236C75.6069 19.1236 75.2347 19.0511 74.908 18.9062C74.5813 18.7585 74.3228 18.5412 74.1325 18.2543C73.945 17.9645 73.8512 17.6037 73.8512 17.1719C73.8512 16.8082 73.918 16.5028 74.0515 16.2557C74.185 16.0085 74.3668 15.8097 74.5969 15.6591C74.8271 15.5085 75.0884 15.3949 75.381 15.3182C75.6765 15.2415 75.9862 15.1875 76.31 15.1562C76.6907 15.1165 76.9975 15.0795 77.2305 15.0455C77.4634 15.0085 77.6325 14.9545 77.7376 14.8835C77.8427 14.8125 77.8952 14.7074 77.8952 14.5682V14.5426C77.8952 14.2727 77.81 14.0639 77.6396 13.9162C77.4719 13.7685 77.2333 13.6946 76.9237 13.6946C76.5969 13.6946 76.337 13.767 76.1438 13.9119C75.9506 14.054 75.8228 14.233 75.7603 14.4489L74.0813 14.3125C74.1665 13.9148 74.3342 13.571 74.5842 13.2812C74.8342 12.9886 75.1566 12.7642 75.5515 12.608C75.9492 12.4489 76.4094 12.3693 76.9322 12.3693C77.2958 12.3693 77.6438 12.4119 77.9762 12.4972C78.3114 12.5824 78.6083 12.7145 78.8668 12.8935C79.1282 13.0724 79.3342 13.3026 79.4847 13.5838C79.6353 13.8622 79.7106 14.196 79.7106 14.5852V19H77.989V18.0923H77.9379C77.8327 18.2969 77.6921 18.4773 77.516 18.6335C77.3398 18.7869 77.1282 18.9077 76.881 18.9957C76.6339 19.081 76.3484 19.1236 76.0245 19.1236ZM76.5444 17.8707C76.8114 17.8707 77.0472 17.8182 77.2518 17.7131C77.4563 17.6051 77.6168 17.4602 77.7333 17.2784C77.8498 17.0966 77.908 16.8906 77.908 16.6605V15.9659C77.8512 16.0028 77.7731 16.0369 77.6737 16.0682C77.5771 16.0966 77.4677 16.1236 77.3455 16.1491C77.2234 16.1719 77.1012 16.1932 76.979 16.2131C76.8569 16.2301 76.7461 16.2457 76.6467 16.2599C76.4336 16.2912 76.2475 16.3409 76.0884 16.4091C75.9293 16.4773 75.8058 16.5696 75.7177 16.6861C75.6296 16.7997 75.5856 16.9418 75.5856 17.1122C75.5856 17.3594 75.6751 17.5483 75.854 17.679C76.0359 17.8068 76.266 17.8707 76.5444 17.8707Z" fill="white"/>
<path fill-rule="evenodd" clip-rule="evenodd" d="M8.10095 8.69749C8.10095 6.59968 9.80156 4.89908 11.8994 4.89908L18.1007 4.89908C20.1985 4.89908 21.8991 6.59967 21.8991 8.69749C21.8991 9.97773 21.2658 11.11 20.2953 11.7982C21.2658 12.4863 21.8991 13.6186 21.8991 14.8988C21.8991 16.9967 20.1985 18.6973 18.1007 18.6973C17.1891 18.6973 16.3525 18.3761 15.6978 17.8408L15.6978 21.1006C15.6978 23.1985 13.9972 24.8991 11.8994 24.8991C9.80154 24.8991 8.10095 23.1984 8.10095 21.1006C8.10095 19.8203 8.73445 18.6879 9.70511 17.9997C8.73445 17.3116 8.10095 16.1792 8.10095 14.8988C8.10095 13.6186 8.73431 12.4863 9.70479 11.7982C8.73431 11.11 8.10095 9.97772 8.10095 8.69749ZM18.0729 12.4959H18.1007C18.1079 12.4959 18.1152 12.4959 18.1224 12.4958C19.4397 12.5075 20.5038 13.5789 20.5038 14.8988C20.5038 16.226 19.4279 17.3019 18.1007 17.3019C16.7836 17.3019 15.714 16.2423 15.6978 14.929V14.8686C15.7139 13.5646 16.7686 12.5107 18.0729 12.4959ZM14.3025 12.4959H11.8994C11.8957 12.4959 11.8921 12.4959 11.8884 12.4959C11.8848 12.4959 11.8812 12.4959 11.8776 12.4958C10.5604 12.5075 9.49629 13.5789 9.49629 14.8988C9.49629 16.226 10.5722 17.3019 11.8994 17.3019H14.3025V14.9368C14.3024 14.9293 14.3024 14.9219 14.3023 14.9144C14.3023 14.9092 14.3023 14.904 14.3023 14.8988C14.3023 14.8861 14.3024 14.8735 14.3025 14.8608L14.3025 12.4959ZM14.3023 6.29441V11.1004H11.8994C11.8921 11.1004 11.8848 11.1004 11.8776 11.1005C10.5604 11.0888 9.49629 10.0174 9.49629 8.69749C9.49629 7.37031 10.5722 6.29441 11.8994 6.29441H14.3023ZM18.1224 11.1005C19.4397 11.0888 20.5038 10.0174 20.5038 8.69749C20.5038 7.37032 19.4279 6.29441 18.1007 6.29441H15.6978V11.1006L18.0657 11.1006C18.0774 11.1005 18.089 11.1004 18.1007 11.1004C18.1079 11.1004 18.1152 11.1004 18.1224 11.1005ZM11.8994 18.6976C10.5722 18.6976 9.49629 19.7735 9.49629 21.1006C9.49629 22.4278 10.5722 23.5037 11.8994 23.5037C13.2266 23.5037 14.3025 22.4278 14.3025 21.1006L14.3025 18.6976H11.8994Z" fill="white"/>
</svg>
