<svg width="100" height="30" viewBox="0 0 100 30" fill="none" xmlns="http://www.w3.org/2000/svg">
<rect width="100" height="30" rx="5" fill="#F05133"/>
<path d="M60.3091 13.0938C60.2495 12.8864 60.1657 12.7031 60.0577 12.544C59.9498 12.3821 59.8176 12.2457 59.6614 12.1349C59.508 12.0213 59.3319 11.9347 59.133 11.875C58.937 11.8153 58.7196 11.7855 58.481 11.7855C58.035 11.7855 57.6429 11.8963 57.3049 12.1179C56.9696 12.3395 56.7083 12.6619 56.5208 13.0852C56.3333 13.5057 56.2395 14.0199 56.2395 14.6278C56.2395 15.2358 56.3319 15.7528 56.5165 16.179C56.7012 16.6051 56.9625 16.9304 57.3006 17.1548C57.6387 17.3764 58.0378 17.4872 58.498 17.4872C58.9157 17.4872 59.2722 17.4134 59.5676 17.2656C59.8659 17.1151 60.0932 16.9034 60.2495 16.6307C60.4086 16.358 60.4881 16.0355 60.4881 15.6634L60.8631 15.7188H58.6131V14.3295H62.2651V15.429C62.2651 16.196 62.1032 16.8551 61.7793 17.4062C61.4554 17.9545 61.0094 18.3778 60.4412 18.6761C59.873 18.9716 59.2225 19.1193 58.4895 19.1193C57.6713 19.1193 56.9526 18.9389 56.3333 18.5781C55.714 18.2145 55.231 17.6989 54.8844 17.0312C54.5407 16.3608 54.3688 15.5653 54.3688 14.6449C54.3688 13.9375 54.4711 13.3068 54.6756 12.7528C54.883 12.196 55.1728 11.7244 55.5449 11.3381C55.9171 10.9517 56.3503 10.6577 56.8446 10.456C57.339 10.2543 57.8745 10.1534 58.4512 10.1534C58.9455 10.1534 59.4057 10.2259 59.8319 10.3707C60.258 10.5128 60.6358 10.7145 60.9654 10.9759C61.2978 11.2372 61.5691 11.5483 61.7793 11.9091C61.9895 12.267 62.1245 12.6619 62.1841 13.0938H60.3091ZM64.0272 19V12.4545H65.8425V19H64.0272ZM64.9391 11.6108C64.6692 11.6108 64.4377 11.5213 64.2445 11.3423C64.0542 11.1605 63.959 10.9432 63.959 10.6903C63.959 10.4403 64.0542 10.2259 64.2445 10.0469C64.4377 9.86506 64.6692 9.77415 64.9391 9.77415C65.209 9.77415 65.4391 9.86506 65.6294 10.0469C65.8226 10.2259 65.9192 10.4403 65.9192 10.6903C65.9192 10.9432 65.8226 11.1605 65.6294 11.3423C65.4391 11.5213 65.209 11.6108 64.9391 11.6108ZM70.7782 12.4545V13.8182H66.8365V12.4545H70.7782ZM67.7314 10.8864H69.5467V16.9886C69.5467 17.1562 69.5723 17.2869 69.6234 17.3807C69.6745 17.4716 69.7456 17.5355 69.8365 17.5724C69.9302 17.6094 70.0382 17.6278 70.1603 17.6278C70.2456 17.6278 70.3308 17.6207 70.416 17.6065C70.5012 17.5895 70.5666 17.5767 70.612 17.5682L70.8975 18.919C70.8066 18.9474 70.6788 18.9801 70.514 19.017C70.3493 19.0568 70.149 19.081 69.9132 19.0895C69.4757 19.1065 69.0922 19.0483 68.7626 18.9148C68.4359 18.7812 68.1816 18.5739 67.9998 18.2926C67.818 18.0114 67.7285 17.6562 67.7314 17.2273V10.8864Z" fill="white"/>
<path d="M24.6206 14.1084L15.8882 5.37677C15.6548 5.14404 15.3328 5 14.9767 5C14.6206 5 14.2985 5.14404 14.0651 5.37677L12.2559 7.18925L14.5559 9.4892C14.7026 9.43785 14.8713 9.40851 15.0473 9.40851C15.8936 9.40851 16.5791 10.094 16.5791 10.9403C16.5791 11.1196 16.5484 11.291 16.4917 11.4511L16.4951 11.4404L18.7103 13.657C18.8584 13.6043 19.0297 13.5736 19.2078 13.5736C20.0533 13.5736 20.7389 14.2591 20.7389 15.1047C20.7389 15.9503 20.0533 16.6358 19.2078 16.6358C18.3622 16.6358 17.6767 15.9503 17.6767 15.1047C17.6767 14.896 17.7187 14.6973 17.7941 14.5159L17.7901 14.5259L15.7162 12.4627V17.9001C16.2257 18.1568 16.5691 18.6756 16.5691 19.2745C16.5691 20.1214 15.8822 20.8082 15.0353 20.8082C14.1885 20.8082 13.5016 20.1214 13.5016 19.2745C13.5016 18.8517 13.6723 18.4696 13.9491 18.1922C14.0898 18.0515 14.2571 17.9374 14.4432 17.8574L14.4532 17.8534V12.3626C13.8917 12.1266 13.5049 11.5804 13.5049 10.9449C13.5049 10.7315 13.5483 10.5288 13.627 10.3441L13.623 10.3541L11.363 8.08349L5.37477 14.0678C5.1427 14.3018 5 14.6239 5 14.98C5 15.3361 5.14337 15.6582 5.37543 15.8922L14.1084 24.6226C14.3412 24.856 14.6632 25 15.0193 25C15.3754 25 15.6969 24.856 15.9302 24.6226L24.6219 15.9309C24.8553 15.6982 25 15.3754 25 15.02C25 14.6646 24.8553 14.3418 24.6219 14.1091L24.6206 14.1084Z" fill="white"/>
</svg>
