<svg width="100" height="30" viewBox="0 0 100 30" fill="none" xmlns="http://www.w3.org/2000/svg">
<rect width="100" height="30" rx="5" fill="#EEEEEE"/>
<path d="M44.5495 19V10.2727H50.4302V11.794H46.3947V13.8736H50.1277V15.3949H46.3947V17.4787H50.4473V19H44.5495ZM55.9412 14.696V16.1364H51.9611V14.696H55.9412ZM57.4881 19V12.4545H59.2182V13.6094H59.2949C59.4313 13.2259 59.6586 12.9233 59.9767 12.7017C60.2949 12.4801 60.6756 12.3693 61.1188 12.3693C61.5676 12.3693 61.9498 12.4815 62.2651 12.706C62.5804 12.9276 62.7907 13.2287 62.8958 13.6094H62.964C63.0975 13.2344 63.339 12.9347 63.6884 12.7102C64.0407 12.483 64.4569 12.3693 64.937 12.3693C65.5478 12.3693 66.0435 12.5639 66.4242 12.9531C66.8077 13.3395 66.9995 13.8878 66.9995 14.598V19H65.1884V14.956C65.1884 14.5923 65.0918 14.3196 64.8986 14.1378C64.7054 13.956 64.464 13.8651 64.1742 13.8651C63.8446 13.8651 63.5875 13.9702 63.4029 14.1804C63.2182 14.3878 63.1259 14.6619 63.1259 15.0028V19H61.3659V14.9176C61.3659 14.5966 61.2736 14.3409 61.089 14.1506C60.9071 13.9602 60.6671 13.8651 60.3688 13.8651C60.1671 13.8651 59.9853 13.9162 59.8233 14.0185C59.6642 14.1179 59.5378 14.2585 59.4441 14.4403C59.3503 14.6193 59.3034 14.8295 59.3034 15.071V19H57.4881ZM70.2999 19.1236C69.8823 19.1236 69.5101 19.0511 69.1834 18.9062C68.8567 18.7585 68.5982 18.5412 68.4078 18.2543C68.2203 17.9645 68.1266 17.6037 68.1266 17.1719C68.1266 16.8082 68.1934 16.5028 68.3269 16.2557C68.4604 16.0085 68.6422 15.8097 68.8723 15.6591C69.1025 15.5085 69.3638 15.3949 69.6564 15.3182C69.9519 15.2415 70.2615 15.1875 70.5854 15.1562C70.9661 15.1165 71.2729 15.0795 71.5059 15.0455C71.7388 15.0085 71.9078 14.9545 72.013 14.8835C72.1181 14.8125 72.1706 14.7074 72.1706 14.5682V14.5426C72.1706 14.2727 72.0854 14.0639 71.915 13.9162C71.7473 13.7685 71.5087 13.6946 71.199 13.6946C70.8723 13.6946 70.6124 13.767 70.4192 13.9119C70.226 14.054 70.0982 14.233 70.0357 14.4489L68.3567 14.3125C68.4419 13.9148 68.6096 13.571 68.8596 13.2812C69.1096 12.9886 69.432 12.7642 69.8269 12.608C70.2246 12.4489 70.6848 12.3693 71.2076 12.3693C71.5712 12.3693 71.9192 12.4119 72.2516 12.4972C72.5868 12.5824 72.8837 12.7145 73.1422 12.8935C73.4036 13.0724 73.6096 13.3026 73.7601 13.5838C73.9107 13.8622 73.986 14.196 73.986 14.5852V19H72.2644V18.0923H72.2132C72.1081 18.2969 71.9675 18.4773 71.7914 18.6335C71.6152 18.7869 71.4036 18.9077 71.1564 18.9957C70.9093 19.081 70.6238 19.1236 70.2999 19.1236ZM70.8198 17.8707C71.0868 17.8707 71.3226 17.8182 71.5272 17.7131C71.7317 17.6051 71.8922 17.4602 72.0087 17.2784C72.1252 17.0966 72.1834 16.8906 72.1834 16.6605V15.9659C72.1266 16.0028 72.0485 16.0369 71.949 16.0682C71.8525 16.0966 71.7431 16.1236 71.6209 16.1491C71.4988 16.1719 71.3766 16.1932 71.2544 16.2131C71.1323 16.2301 71.0215 16.2457 70.9221 16.2599C70.709 16.2912 70.5229 16.3409 70.3638 16.4091C70.2047 16.4773 70.0811 16.5696 69.9931 16.6861C69.905 16.7997 69.861 16.9418 69.861 17.1122C69.861 17.3594 69.9505 17.5483 70.1294 17.679C70.3113 17.8068 70.5414 17.8707 70.8198 17.8707ZM75.3944 19V12.4545H77.2097V19H75.3944ZM76.3063 11.6108C76.0364 11.6108 75.8049 11.5213 75.6117 11.3423C75.4213 11.1605 75.3262 10.9432 75.3262 10.6903C75.3262 10.4403 75.4213 10.2259 75.6117 10.0469C75.8049 9.86506 76.0364 9.77415 76.3063 9.77415C76.5762 9.77415 76.8063 9.86506 76.9966 10.0469C77.1898 10.2259 77.2864 10.4403 77.2864 10.6903C77.2864 10.9432 77.1898 11.1605 76.9966 11.3423C76.8063 11.5213 76.5762 11.6108 76.3063 11.6108ZM80.4792 10.2727V19H78.6639V10.2727H80.4792Z" fill="black"/>
<path fill-rule="evenodd" clip-rule="evenodd" d="M9.55556 9.75534V9.75429L7.88889 8.47651C6.38889 7.30985 5 8.47651 5 9.92096V11.5876V11.6987V21.3098C5 22.4209 5.55556 22.9765 6.66667 22.9765H9.55556V15.1998L15 19.3098L20.4445 15.1998V22.9765H23.3333C24.4445 22.9765 25 22.4209 25 21.3098V11.6987V11.5876V9.92096C25 8.47651 23.6111 7.30985 22.1111 8.47651L20.4445 9.75429V9.75539L15 13.8654L9.55556 9.75534Z" fill="black"/>
</svg>
