<svg width="100" height="30" viewBox="0 0 100 30" fill="none" xmlns="http://www.w3.org/2000/svg">
<rect width="100" height="30" rx="5" fill="#F16529"/>
<path d="M45.8796 19V10.2727H47.7248V13.8736H51.4705V10.2727H53.3114V19H51.4705V15.3949H47.7248V19H45.8796ZM54.5004 11.794V10.2727H61.668V11.794H58.9961V19H57.1722V11.794H54.5004ZM62.8484 10.2727H65.1239L67.5273 16.1364H67.6296L70.033 10.2727H72.3086V19H70.5188V13.3196H70.4464L68.1879 18.9574H66.9691L64.7106 13.2983H64.6381V19H62.8484V10.2727ZM73.8288 19V10.2727H75.674V17.4787H79.4155V19H73.8288Z" fill="white"/>
<path d="M6 5L7.63807 23.0009L14.9889 25L22.3601 22.998L24 5H6ZM20.583 9.27185L20.4805 10.3911L20.4354 10.8874H20.428H15H14.9921H11.8122L12.0182 13.1481H14.9921H15H19.623H20.2303L20.1753 13.7409L19.6458 19.5533L19.6118 19.926L15 21.1783V21.1788L14.9897 21.1816L10.3737 19.9261L10.0579 16.4597H11.1005H12.32L12.4805 18.2204L14.9901 18.8844L14.9921 18.8838V18.8836L17.5056 18.2191L17.7669 15.3558H15H14.9921H9.95727L9.40346 9.27185L9.34949 8.67963H14.9922H15H20.637L20.583 9.27185Z" fill="white"/>
</svg>
