<svg width="100" height="30" viewBox="0 0 100 30" fill="none" xmlns="http://www.w3.org/2000/svg">
<rect width="100" height="30" rx="5" fill="#F0DB4F"/>
<path d="M35.3876 10.2727H37.2115V16.358C37.2115 16.9205 37.085 17.4091 36.8322 17.8239C36.5822 18.2386 36.2342 18.5582 35.7882 18.7827C35.3422 19.0071 34.8237 19.1193 34.2328 19.1193C33.7072 19.1193 33.2299 19.027 32.801 18.8423C32.3748 18.6548 32.0368 18.3707 31.7868 17.9901C31.5368 17.6065 31.4132 17.125 31.416 16.5455H33.2527C33.2583 16.7756 33.3052 16.973 33.3933 17.1378C33.4842 17.2997 33.6078 17.4247 33.764 17.5128C33.9231 17.598 34.1106 17.6406 34.3265 17.6406C34.5538 17.6406 34.7456 17.5923 34.9018 17.4957C35.0609 17.3963 35.1816 17.2514 35.264 17.0611C35.3464 16.8707 35.3876 16.6364 35.3876 16.358V10.2727ZM40.5694 19.1236C40.1518 19.1236 39.7797 19.0511 39.4529 18.9062C39.1262 18.7585 38.8677 18.5412 38.6774 18.2543C38.4899 17.9645 38.3961 17.6037 38.3961 17.1719C38.3961 16.8082 38.4629 16.5028 38.5964 16.2557C38.7299 16.0085 38.9118 15.8097 39.1419 15.6591C39.372 15.5085 39.6333 15.3949 39.926 15.3182C40.2214 15.2415 40.5311 15.1875 40.8549 15.1562C41.2356 15.1165 41.5424 15.0795 41.7754 15.0455C42.0083 15.0085 42.1774 14.9545 42.2825 14.8835C42.3876 14.8125 42.4402 14.7074 42.4402 14.5682V14.5426C42.4402 14.2727 42.3549 14.0639 42.1845 13.9162C42.0169 13.7685 41.7782 13.6946 41.4686 13.6946C41.1419 13.6946 40.8819 13.767 40.6887 13.9119C40.4956 14.054 40.3677 14.233 40.3052 14.4489L38.6262 14.3125C38.7115 13.9148 38.8791 13.571 39.1291 13.2812C39.3791 12.9886 39.7015 12.7642 40.0964 12.608C40.4941 12.4489 40.9544 12.3693 41.4771 12.3693C41.8407 12.3693 42.1887 12.4119 42.5211 12.4972C42.8564 12.5824 43.1532 12.7145 43.4118 12.8935C43.6731 13.0724 43.8791 13.3026 44.0297 13.5838C44.1802 13.8622 44.2555 14.196 44.2555 14.5852V19H42.5339V18.0923H42.4828C42.3777 18.2969 42.237 18.4773 42.0609 18.6335C41.8848 18.7869 41.6731 18.9077 41.426 18.9957C41.1788 19.081 40.8933 19.1236 40.5694 19.1236ZM41.0893 17.8707C41.3564 17.8707 41.5922 17.8182 41.7967 17.7131C42.0012 17.6051 42.1618 17.4602 42.2782 17.2784C42.3947 17.0966 42.4529 16.8906 42.4529 16.6605V15.9659C42.3961 16.0028 42.318 16.0369 42.2186 16.0682C42.122 16.0966 42.0126 16.1236 41.8904 16.1491C41.7683 16.1719 41.6461 16.1932 41.524 16.2131C41.4018 16.2301 41.291 16.2457 41.1916 16.2599C40.9785 16.2912 40.7924 16.3409 40.6333 16.4091C40.4743 16.4773 40.3507 16.5696 40.2626 16.6861C40.1745 16.7997 40.1305 16.9418 40.1305 17.1122C40.1305 17.3594 40.22 17.5483 40.399 17.679C40.5808 17.8068 40.8109 17.8707 41.0893 17.8707ZM51.5318 12.4545L49.2434 19H47.198L44.9096 12.4545H46.8272L48.1866 17.1378H48.2548L49.6099 12.4545H51.5318ZM54.1515 19.1236C53.7338 19.1236 53.3617 19.0511 53.035 18.9062C52.7083 18.7585 52.4498 18.5412 52.2594 18.2543C52.0719 17.9645 51.9782 17.6037 51.9782 17.1719C51.9782 16.8082 52.0449 16.5028 52.1784 16.2557C52.312 16.0085 52.4938 15.8097 52.7239 15.6591C52.954 15.5085 53.2154 15.3949 53.508 15.3182C53.8034 15.2415 54.1131 15.1875 54.437 15.1562C54.8176 15.1165 55.1245 15.0795 55.3574 15.0455C55.5904 15.0085 55.7594 14.9545 55.8645 14.8835C55.9696 14.8125 56.0222 14.7074 56.0222 14.5682V14.5426C56.0222 14.2727 55.937 14.0639 55.7665 13.9162C55.5989 13.7685 55.3603 13.6946 55.0506 13.6946C54.7239 13.6946 54.464 13.767 54.2708 13.9119C54.0776 14.054 53.9498 14.233 53.8873 14.4489L52.2083 14.3125C52.2935 13.9148 52.4611 13.571 52.7111 13.2812C52.9611 12.9886 53.2836 12.7642 53.6784 12.608C54.0762 12.4489 54.5364 12.3693 55.0591 12.3693C55.4228 12.3693 55.7708 12.4119 56.1032 12.4972C56.4384 12.5824 56.7353 12.7145 56.9938 12.8935C57.2551 13.0724 57.4611 13.3026 57.6117 13.5838C57.7623 13.8622 57.8375 14.196 57.8375 14.5852V19H56.1159V18.0923H56.0648C55.9597 18.2969 55.8191 18.4773 55.6429 18.6335C55.4668 18.7869 55.2551 18.9077 55.008 18.9957C54.7608 19.081 54.4753 19.1236 54.1515 19.1236ZM54.6713 17.8707C54.9384 17.8707 55.1742 17.8182 55.3787 17.7131C55.5833 17.6051 55.7438 17.4602 55.8603 17.2784C55.9767 17.0966 56.035 16.8906 56.035 16.6605V15.9659C55.9782 16.0028 55.9 16.0369 55.8006 16.0682C55.704 16.0966 55.5946 16.1236 55.4725 16.1491C55.3503 16.1719 55.2282 16.1932 55.106 16.2131C54.9838 16.2301 54.873 16.2457 54.7736 16.2599C54.5605 16.2912 54.3745 16.3409 54.2154 16.4091C54.0563 16.4773 53.9327 16.5696 53.8446 16.6861C53.7566 16.7997 53.7125 16.9418 53.7125 17.1122C53.7125 17.3594 53.802 17.5483 53.981 17.679C54.1628 17.8068 54.3929 17.8707 54.6713 17.8707ZM64.0144 12.7827C63.9803 12.4389 63.834 12.1719 63.5755 11.9815C63.3169 11.7912 62.9661 11.696 62.5229 11.696C62.2218 11.696 61.9675 11.7386 61.7601 11.8239C61.5527 11.9062 61.3936 12.0213 61.2828 12.169C61.1749 12.3168 61.1209 12.4844 61.1209 12.6719C61.1152 12.8281 61.1479 12.9645 61.2189 13.081C61.2928 13.1974 61.3936 13.2983 61.5215 13.3835C61.6493 13.4659 61.7971 13.5384 61.9647 13.6009C62.1323 13.6605 62.3113 13.7116 62.5016 13.7543L63.2857 13.9418C63.6664 14.027 64.0158 14.1406 64.334 14.2827C64.6522 14.4247 64.9277 14.5994 65.1607 14.8068C65.3936 15.0142 65.574 15.2585 65.7019 15.5398C65.8326 15.821 65.8993 16.1435 65.9022 16.5071C65.8993 17.0412 65.763 17.5043 65.4931 17.8963C65.226 18.2855 64.8397 18.5881 64.334 18.804C63.8311 19.017 63.2246 19.1236 62.5144 19.1236C61.8098 19.1236 61.1962 19.0156 60.6735 18.7997C60.1536 18.5838 59.7473 18.2642 59.4547 17.8409C59.165 17.4148 59.013 16.8878 58.9988 16.2599H60.7843C60.8042 16.5526 60.888 16.7969 61.0357 16.9929C61.1863 17.1861 61.3865 17.3324 61.6365 17.4318C61.8894 17.5284 62.1749 17.5767 62.4931 17.5767C62.8056 17.5767 63.0769 17.5312 63.307 17.4403C63.54 17.3494 63.7203 17.223 63.8482 17.0611C63.976 16.8991 64.04 16.7131 64.04 16.5028C64.04 16.3068 63.9817 16.142 63.8652 16.0085C63.7516 15.875 63.584 15.7614 63.3624 15.6676C63.1436 15.5739 62.8752 15.4886 62.557 15.4119L61.6067 15.1733C60.8709 14.9943 60.29 14.7145 59.8638 14.3338C59.4377 13.9531 59.226 13.4403 59.2289 12.7955C59.226 12.267 59.3667 11.8054 59.6507 11.4105C59.9377 11.0156 60.3311 10.7074 60.8311 10.4858C61.3311 10.2642 61.8993 10.1534 62.5357 10.1534C63.1834 10.1534 63.7488 10.2642 64.2317 10.4858C64.7175 10.7074 65.0953 11.0156 65.3652 11.4105C65.6351 11.8054 65.7743 12.2628 65.7828 12.7827H64.0144ZM70.0666 19.1278C69.3961 19.1278 68.8194 18.9858 68.3365 18.7017C67.8564 18.4148 67.487 18.017 67.2285 17.5085C66.9728 17 66.845 16.4148 66.845 15.7528C66.845 15.0824 66.9743 14.4943 67.2328 13.9886C67.4941 13.4801 67.8649 13.0838 68.345 12.7997C68.8251 12.5128 69.3961 12.3693 70.0581 12.3693C70.6291 12.3693 71.1291 12.473 71.5581 12.6804C71.987 12.8878 72.3265 13.179 72.5765 13.554C72.8265 13.929 72.9643 14.3693 72.9899 14.875H71.2768C71.2285 14.5483 71.1007 14.2855 70.8933 14.0866C70.6887 13.8849 70.4203 13.7841 70.0879 13.7841C69.8066 13.7841 69.5609 13.8608 69.3507 14.0142C69.1433 14.1648 68.9814 14.3849 68.8649 14.6747C68.7484 14.9645 68.6902 15.3153 68.6902 15.7273C68.6902 16.1449 68.747 16.5 68.8606 16.7926C68.9771 17.0852 69.1404 17.3082 69.3507 17.4616C69.5609 17.6151 69.8066 17.6918 70.0879 17.6918C70.2953 17.6918 70.4814 17.6491 70.6461 17.5639C70.8137 17.4787 70.9515 17.3551 71.0595 17.1932C71.1703 17.0284 71.2427 16.831 71.2768 16.6009H72.9899C72.9615 17.1009 72.8251 17.5412 72.5808 17.9219C72.3393 18.2997 72.0055 18.5952 71.5794 18.8082C71.1532 19.0213 70.649 19.1278 70.0666 19.1278ZM74.1522 19V12.4545H75.9121V13.5966H75.9803C76.0996 13.1903 76.2999 12.8835 76.5811 12.6761C76.8624 12.4659 77.1863 12.3608 77.5527 12.3608C77.6436 12.3608 77.7417 12.3665 77.8468 12.3778C77.9519 12.3892 78.0442 12.4048 78.1238 12.4247V14.0355C78.0385 14.0099 77.9206 13.9872 77.7701 13.9673C77.6195 13.9474 77.4817 13.9375 77.3567 13.9375C77.0897 13.9375 76.851 13.9957 76.6408 14.1122C76.4334 14.2259 76.2686 14.3849 76.1465 14.5895C76.0272 14.794 75.9675 15.0298 75.9675 15.2969V19H74.1522ZM79.0623 19V12.4545H80.8777V19H79.0623ZM79.9743 11.6108C79.7044 11.6108 79.4728 11.5213 79.2797 11.3423C79.0893 11.1605 78.9941 10.9432 78.9941 10.6903C78.9941 10.4403 79.0893 10.2259 79.2797 10.0469C79.4728 9.86506 79.7044 9.77415 79.9743 9.77415C80.2441 9.77415 80.4743 9.86506 80.6646 10.0469C80.8578 10.2259 80.9544 10.4403 80.9544 10.6903C80.9544 10.9432 80.8578 11.1605 80.6646 11.3423C80.4743 11.5213 80.2441 11.6108 79.9743 11.6108ZM82.3319 21.4545V12.4545H84.1216V13.554H84.2026C84.2821 13.3778 84.3972 13.1989 84.5478 13.017C84.7012 12.8324 84.9 12.679 85.1444 12.5568C85.3915 12.4318 85.6983 12.3693 86.0648 12.3693C86.5421 12.3693 86.9824 12.4943 87.3858 12.7443C87.7892 12.9915 88.1117 13.3651 88.3532 13.8651C88.5946 14.3622 88.7154 14.9858 88.7154 15.7358C88.7154 16.4659 88.5975 17.0824 88.3617 17.5852C88.1287 18.0852 87.8105 18.4645 87.4071 18.723C87.0066 18.9787 86.5577 19.1065 86.0605 19.1065C85.7083 19.1065 85.4086 19.0483 85.1614 18.9318C84.9171 18.8153 84.7168 18.669 84.5605 18.4929C84.4043 18.3139 84.285 18.1335 84.2026 17.9517H84.1472V21.4545H82.3319ZM84.1088 15.7273C84.1088 16.1165 84.1628 16.456 84.2708 16.7457C84.3787 17.0355 84.535 17.2614 84.7395 17.4233C84.9441 17.5824 85.1926 17.6619 85.4853 17.6619C85.7807 17.6619 86.0307 17.581 86.2353 17.419C86.4398 17.2543 86.5946 17.027 86.6998 16.7372C86.8077 16.4446 86.8617 16.108 86.8617 15.7273C86.8617 15.3494 86.8091 15.017 86.704 14.7301C86.5989 14.4432 86.4441 14.2187 86.2395 14.0568C86.035 13.8949 85.7836 13.8139 85.4853 13.8139C85.1898 13.8139 84.9398 13.892 84.7353 14.0483C84.5336 14.2045 84.3787 14.4261 84.2708 14.7131C84.1628 15 84.1088 15.3381 84.1088 15.7273ZM93.4071 12.4545V13.8182H89.4654V12.4545H93.4071ZM90.3603 10.8864H92.1756V16.9886C92.1756 17.1562 92.2012 17.2869 92.2523 17.3807C92.3034 17.4716 92.3745 17.5355 92.4654 17.5724C92.5591 17.6094 92.6671 17.6278 92.7892 17.6278C92.8745 17.6278 92.9597 17.6207 93.0449 17.6065C93.1301 17.5895 93.1955 17.5767 93.2409 17.5682L93.5265 18.919C93.4355 18.9474 93.3077 18.9801 93.1429 19.017C92.9782 19.0568 92.7779 19.081 92.5421 19.0895C92.1046 19.1065 91.7211 19.0483 91.3915 18.9148C91.0648 18.7812 90.8105 18.5739 90.6287 18.2926C90.4469 18.0114 90.3574 17.6562 90.3603 17.2273V10.8864Z" fill="black"/>
<path fill-rule="evenodd" clip-rule="evenodd" d="M20.328 23.4321C18.583 23.4321 17.455 22.6002 16.905 21.5122L18.435 20.626C18.838 21.284 19.361 21.7671 20.288 21.7671C21.066 21.7671 21.563 21.3778 21.563 20.8408C21.563 20.0328 20.485 19.7171 19.724 19.3911C18.368 18.8141 17.468 18.0891 17.468 16.5581C17.468 15.1491 18.542 14.0752 20.221 14.0752C21.415 14.0752 22.275 14.4911 22.892 15.5781L21.429 16.5181C21.107 15.9411 20.758 15.7129 20.221 15.7129C19.67 15.7129 19.321 16.0621 19.321 16.5181C19.321 17.0821 19.67 17.3102 20.476 17.6592C22.165 18.3832 23.443 18.952 23.443 20.814C23.443 22.506 22.114 23.4321 20.328 23.4321ZM16 20.5991C16 22.5461 14.801 23.5752 13.136 23.5752C11.632 23.5752 10.731 23 10.288 22H10.273H10.266H10.262L11.791 20.9312C12.086 21.4542 12.352 21.8252 12.996 21.8252C13.614 21.8252 14 21.5122 14 20.5732V14H16V20.5991ZM5 25H25V5H5V25Z" fill="black"/>
</svg>
