<svg width="100" height="30" viewBox="0 0 100 30" fill="none" xmlns="http://www.w3.org/2000/svg">
<rect width="100" height="30" rx="5" fill="#0A66C2"/>
<path fill-rule="evenodd" clip-rule="evenodd" d="M25 25H21V18.001C21 16.081 20.153 15.0098 18.634 15.0098C16.981 15.0098 16 16.126 16 18.001V25H12V12H16V13.4619C16 13.4619 17.255 11.2598 20.083 11.2598C22.912 11.2598 25 12.9861 25 16.5581V25ZM7.442 9.9209C6.093 9.9209 5 8.81896 5 7.45996C5 6.10196 6.093 5 7.442 5C8.79 5 9.883 6.10196 9.883 7.45996C9.884 8.81896 8.79 9.9209 7.442 9.9209ZM5 25H10V12H5V25Z" fill="white"/>
<path d="M38.362 19V10.2727H40.2072V17.4787H43.9487V19H38.362ZM45.1365 19V12.4545H46.9519V19H45.1365ZM46.0485 11.6108C45.7786 11.6108 45.5471 11.5213 45.3539 11.3423C45.1635 11.1605 45.0684 10.9432 45.0684 10.6903C45.0684 10.4403 45.1635 10.2259 45.3539 10.0469C45.5471 9.86506 45.7786 9.77415 46.0485 9.77415C46.3184 9.77415 46.5485 9.86506 46.7388 10.0469C46.932 10.2259 47.0286 10.4403 47.0286 10.6903C47.0286 10.9432 46.932 11.1605 46.7388 11.3423C46.5485 11.5213 46.3184 11.6108 46.0485 11.6108ZM50.2214 15.2159V19H48.4061V12.4545H50.1362V13.6094H50.2129C50.3578 13.2287 50.6007 12.9276 50.9416 12.706C51.2825 12.4815 51.6958 12.3693 52.1816 12.3693C52.6362 12.3693 53.0325 12.4688 53.3706 12.6676C53.7086 12.8665 53.9714 13.1506 54.1589 13.5199C54.3464 13.8864 54.4402 14.3239 54.4402 14.8324V19H52.6248V15.1562C52.6277 14.7557 52.5254 14.4432 52.318 14.2188C52.1106 13.9915 51.8251 13.8778 51.4615 13.8778C51.2172 13.8778 51.0012 13.9304 50.8137 14.0355C50.6291 14.1406 50.4842 14.294 50.3791 14.4957C50.2768 14.6946 50.2243 14.9347 50.2214 15.2159ZM57.5158 17.1165L57.5201 14.9389H57.7843L59.8809 12.4545H61.9647L59.1479 15.7443H58.7175L57.5158 17.1165ZM55.8709 19V10.2727H57.6863V19H55.8709ZM59.9618 19L58.0357 16.1491L59.2459 14.8665L62.0882 19H59.9618ZM65.5687 19.1278C64.8954 19.1278 64.3159 18.9915 63.8301 18.7188C63.3471 18.4432 62.975 18.054 62.7136 17.5511C62.4522 17.0455 62.3216 16.4474 62.3216 15.7571C62.3216 15.0838 62.4522 14.4929 62.7136 13.9844C62.975 13.4759 63.3429 13.0795 63.8173 12.7955C64.2946 12.5114 64.8542 12.3693 65.4963 12.3693C65.9281 12.3693 66.3301 12.4389 66.7022 12.5781C67.0772 12.7145 67.4039 12.9205 67.6824 13.196C67.9636 13.4716 68.1824 13.8182 68.3386 14.2358C68.4949 14.6506 68.573 15.1364 68.573 15.6932V16.1918H63.046V15.0668H66.8642C66.8642 14.8054 66.8074 14.5739 66.6937 14.3722C66.5801 14.1705 66.4224 14.0128 66.2207 13.8991C66.0218 13.7827 65.7903 13.7244 65.5261 13.7244C65.2505 13.7244 65.0062 13.7884 64.7931 13.9162C64.5829 14.0412 64.4181 14.2102 64.2988 14.4233C64.1795 14.6335 64.1184 14.8679 64.1156 15.1264V16.196C64.1156 16.5199 64.1752 16.7997 64.2946 17.0355C64.4167 17.2713 64.5886 17.4531 64.8102 17.581C65.0318 17.7088 65.2946 17.7727 65.5985 17.7727C65.8002 17.7727 65.9849 17.7443 66.1525 17.6875C66.3201 17.6307 66.4636 17.5455 66.5829 17.4318C66.7022 17.3182 66.7931 17.179 66.8556 17.0142L68.5346 17.125C68.4494 17.5284 68.2747 17.8807 68.0105 18.1818C67.7491 18.4801 67.411 18.7131 66.9963 18.8807C66.5843 19.0455 66.1085 19.1278 65.5687 19.1278ZM72.1696 19.1065C71.6724 19.1065 71.2221 18.9787 70.8187 18.723C70.4181 18.4645 70.1 18.0852 69.8642 17.5852C69.6312 17.0824 69.5147 16.4659 69.5147 15.7358C69.5147 14.9858 69.6355 14.3622 69.877 13.8651C70.1184 13.3651 70.4395 12.9915 70.84 12.7443C71.2434 12.4943 71.6852 12.3693 72.1653 12.3693C72.5318 12.3693 72.8372 12.4318 73.0815 12.5568C73.3287 12.679 73.5275 12.8324 73.6781 13.017C73.8315 13.1989 73.948 13.3778 74.0275 13.554H74.0829V10.2727H75.894V19H74.1042V17.9517H74.0275C73.9423 18.1335 73.8216 18.3139 73.6653 18.4929C73.5119 18.669 73.3116 18.8153 73.0645 18.9318C72.8201 19.0483 72.5218 19.1065 72.1696 19.1065ZM72.7449 17.6619C73.0375 17.6619 73.2846 17.5824 73.4863 17.4233C73.6909 17.2614 73.8471 17.0355 73.9551 16.7457C74.0659 16.456 74.1213 16.1165 74.1213 15.7273C74.1213 15.3381 74.0673 15 73.9593 14.7131C73.8514 14.4261 73.6951 14.2045 73.4906 14.0483C73.286 13.892 73.0375 13.8139 72.7449 13.8139C72.4466 13.8139 72.1951 13.8949 71.9906 14.0568C71.786 14.2187 71.6312 14.4432 71.5261 14.7301C71.421 15.017 71.3684 15.3494 71.3684 15.7273C71.3684 16.108 71.421 16.4446 71.5261 16.7372C71.6341 17.027 71.7889 17.2543 71.9906 17.419C72.1951 17.581 72.4466 17.6619 72.7449 17.6619ZM77.3865 19V12.4545H79.2019V19H77.3865ZM78.2985 11.6108C78.0286 11.6108 77.7971 11.5213 77.6039 11.3423C77.4135 11.1605 77.3184 10.9432 77.3184 10.6903C77.3184 10.4403 77.4135 10.2259 77.6039 10.0469C77.7971 9.86506 78.0286 9.77415 78.2985 9.77415C78.5684 9.77415 78.7985 9.86506 78.9888 10.0469C79.182 10.2259 79.2786 10.4403 79.2786 10.6903C79.2786 10.9432 79.182 11.1605 78.9888 11.3423C78.7985 11.5213 78.5684 11.6108 78.2985 11.6108ZM82.4714 15.2159V19H80.6561V12.4545H82.3862V13.6094H82.4629C82.6078 13.2287 82.8507 12.9276 83.1916 12.706C83.5325 12.4815 83.9458 12.3693 84.4316 12.3693C84.8862 12.3693 85.2825 12.4688 85.6206 12.6676C85.9586 12.8665 86.2214 13.1506 86.4089 13.5199C86.5964 13.8864 86.6902 14.3239 86.6902 14.8324V19H84.8748V15.1562C84.8777 14.7557 84.7754 14.4432 84.568 14.2188C84.3606 13.9915 84.0751 13.8778 83.7115 13.8778C83.4672 13.8778 83.2512 13.9304 83.0637 14.0355C82.8791 14.1406 82.7342 14.294 82.6291 14.4957C82.5268 14.6946 82.4743 14.9347 82.4714 15.2159Z" fill="white"/>
</svg>
