<svg width="100" height="30" viewBox="0 0 100 30" fill="none" xmlns="http://www.w3.org/2000/svg">
<rect width="100" height="30" rx="5" fill="#539E43"/>
<path d="M47.7125 10.2727V19H46.1188L42.3219 13.5071H42.258V19H40.4128V10.2727H42.0321L45.7992 15.7614H45.8759V10.2727H47.7125ZM52.1603 19.1278C51.4984 19.1278 50.926 18.9872 50.443 18.706C49.9629 18.4219 49.5922 18.027 49.3308 17.5213C49.0694 17.0128 48.9387 16.4233 48.9387 15.7528C48.9387 15.0767 49.0694 14.4858 49.3308 13.9801C49.5922 13.4716 49.9629 13.0767 50.443 12.7955C50.926 12.5114 51.4984 12.3693 52.1603 12.3693C52.8223 12.3693 53.3933 12.5114 53.8734 12.7955C54.3564 13.0767 54.7285 13.4716 54.9899 13.9801C55.2512 14.4858 55.3819 15.0767 55.3819 15.7528C55.3819 16.4233 55.2512 17.0128 54.9899 17.5213C54.7285 18.027 54.3564 18.4219 53.8734 18.706C53.3933 18.9872 52.8223 19.1278 52.1603 19.1278ZM52.1689 17.7216C52.47 17.7216 52.7214 17.6364 52.9231 17.4659C53.1248 17.2926 53.2768 17.0568 53.3791 16.7585C53.4842 16.4602 53.5368 16.1207 53.5368 15.7401C53.5368 15.3594 53.4842 15.0199 53.3791 14.7216C53.2768 14.4233 53.1248 14.1875 52.9231 14.0142C52.7214 13.8409 52.47 13.7543 52.1689 13.7543C51.8649 13.7543 51.6092 13.8409 51.4018 14.0142C51.1973 14.1875 51.0424 14.4233 50.9373 14.7216C50.835 15.0199 50.7839 15.3594 50.7839 15.7401C50.7839 16.1207 50.835 16.4602 50.9373 16.7585C51.0424 17.0568 51.1973 17.2926 51.4018 17.4659C51.6092 17.6364 51.8649 17.7216 52.1689 17.7216ZM58.9743 19.1065C58.4771 19.1065 58.0268 18.9787 57.6234 18.723C57.2228 18.4645 56.9047 18.0852 56.6689 17.5852C56.4359 17.0824 56.3194 16.4659 56.3194 15.7358C56.3194 14.9858 56.4402 14.3622 56.6816 13.8651C56.9231 13.3651 57.2441 12.9915 57.6447 12.7443C58.0481 12.4943 58.4899 12.3693 58.97 12.3693C59.3365 12.3693 59.6419 12.4318 59.8862 12.5568C60.1333 12.679 60.3322 12.8324 60.4828 13.017C60.6362 13.1989 60.7527 13.3778 60.8322 13.554H60.8876V10.2727H62.6987V19H60.9089V17.9517H60.8322C60.747 18.1335 60.6262 18.3139 60.47 18.4929C60.3166 18.669 60.1163 18.8153 59.8691 18.9318C59.6248 19.0483 59.3265 19.1065 58.9743 19.1065ZM59.5495 17.6619C59.8422 17.6619 60.0893 17.5824 60.291 17.4233C60.4956 17.2614 60.6518 17.0355 60.7598 16.7457C60.8706 16.456 60.926 16.1165 60.926 15.7273C60.926 15.3381 60.872 15 60.764 14.7131C60.6561 14.4261 60.4998 14.2045 60.2953 14.0483C60.0907 13.892 59.8422 13.8139 59.5495 13.8139C59.2512 13.8139 58.9998 13.8949 58.7953 14.0568C58.5907 14.2187 58.4359 14.4432 58.3308 14.7301C58.2257 15.017 58.1731 15.3494 58.1731 15.7273C58.1731 16.108 58.2257 16.4446 58.3308 16.7372C58.4387 17.027 58.5936 17.2543 58.7953 17.419C58.9998 17.581 59.2512 17.6619 59.5495 17.6619ZM67.1742 19.1278C66.5009 19.1278 65.9213 18.9915 65.4355 18.7188C64.9526 18.4432 64.5804 18.054 64.3191 17.5511C64.0577 17.0455 63.927 16.4474 63.927 15.7571C63.927 15.0838 64.0577 14.4929 64.3191 13.9844C64.5804 13.4759 64.9483 13.0795 65.4228 12.7955C65.9 12.5114 66.4597 12.3693 67.1017 12.3693C67.5336 12.3693 67.9355 12.4389 68.3077 12.5781C68.6827 12.7145 69.0094 12.9205 69.2878 13.196C69.5691 13.4716 69.7878 13.8182 69.9441 14.2358C70.1003 14.6506 70.1784 15.1364 70.1784 15.6932V16.1918H64.6515V15.0668H68.4696C68.4696 14.8054 68.4128 14.5739 68.2992 14.3722C68.1855 14.1705 68.0279 14.0128 67.8262 13.8991C67.6273 13.7827 67.3958 13.7244 67.1316 13.7244C66.856 13.7244 66.6117 13.7884 66.3986 13.9162C66.1884 14.0412 66.0236 14.2102 65.9043 14.4233C65.785 14.6335 65.7239 14.8679 65.7211 15.1264V16.196C65.7211 16.5199 65.7807 16.7997 65.9 17.0355C66.0222 17.2713 66.1941 17.4531 66.4157 17.581C66.6373 17.7088 66.9 17.7727 67.204 17.7727C67.4057 17.7727 67.5904 17.7443 67.758 17.6875C67.9256 17.6307 68.0691 17.5455 68.1884 17.4318C68.3077 17.3182 68.3986 17.179 68.4611 17.0142L70.1401 17.125C70.0549 17.5284 69.8801 17.8807 69.6159 18.1818C69.3546 18.4801 69.0165 18.7131 68.6017 18.8807C68.1898 19.0455 67.714 19.1278 67.1742 19.1278ZM74.8915 10.2727H76.7154V16.358C76.7154 16.9205 76.589 17.4091 76.3361 17.8239C76.0861 18.2386 75.7381 18.5582 75.2921 18.7827C74.8461 19.0071 74.3276 19.1193 73.7367 19.1193C73.2111 19.1193 72.7338 19.027 72.3049 18.8423C71.8787 18.6548 71.5407 18.3707 71.2907 17.9901C71.0407 17.6065 70.9171 17.125 70.9199 16.5455H72.7566C72.7623 16.7756 72.8091 16.973 72.8972 17.1378C72.9881 17.2997 73.1117 17.4247 73.2679 17.5128C73.427 17.598 73.6145 17.6406 73.8304 17.6406C74.0577 17.6406 74.2495 17.5923 74.4057 17.4957C74.5648 17.3963 74.6855 17.2514 74.7679 17.0611C74.8503 16.8707 74.8915 16.6364 74.8915 16.358V10.2727ZM82.9753 12.7827C82.9412 12.4389 82.7949 12.1719 82.5364 11.9815C82.2779 11.7912 81.927 11.696 81.4838 11.696C81.1827 11.696 80.9284 11.7386 80.7211 11.8239C80.5137 11.9062 80.3546 12.0213 80.2438 12.169C80.1358 12.3168 80.0819 12.4844 80.0819 12.6719C80.0762 12.8281 80.1088 12.9645 80.1799 13.081C80.2537 13.1974 80.3546 13.2983 80.4824 13.3835C80.6103 13.4659 80.758 13.5384 80.9256 13.6009C81.0932 13.6605 81.2722 13.7116 81.4625 13.7543L82.2466 13.9418C82.6273 14.027 82.9767 14.1406 83.2949 14.2827C83.6131 14.4247 83.8887 14.5994 84.1216 14.8068C84.3546 15.0142 84.535 15.2585 84.6628 15.5398C84.7935 15.821 84.8603 16.1435 84.8631 16.5071C84.8603 17.0412 84.7239 17.5043 84.454 17.8963C84.187 18.2855 83.8006 18.5881 83.2949 18.804C82.7921 19.017 82.1855 19.1236 81.4753 19.1236C80.7708 19.1236 80.1571 19.0156 79.6344 18.7997C79.1145 18.5838 78.7083 18.2642 78.4157 17.8409C78.1259 17.4148 77.9739 16.8878 77.9597 16.2599H79.7452C79.7651 16.5526 79.8489 16.7969 79.9966 16.9929C80.1472 17.1861 80.3475 17.3324 80.5975 17.4318C80.8503 17.5284 81.1358 17.5767 81.454 17.5767C81.7665 17.5767 82.0378 17.5312 82.2679 17.4403C82.5009 17.3494 82.6813 17.223 82.8091 17.0611C82.937 16.8991 83.0009 16.7131 83.0009 16.5028C83.0009 16.3068 82.9426 16.142 82.8262 16.0085C82.7125 15.875 82.5449 15.7614 82.3233 15.6676C82.1046 15.5739 81.8361 15.4886 81.5179 15.4119L80.5676 15.1733C79.8319 14.9943 79.2509 14.7145 78.8248 14.3338C78.3986 13.9531 78.187 13.4403 78.1898 12.7955C78.187 12.267 78.3276 11.8054 78.6117 11.4105C78.8986 11.0156 79.2921 10.7074 79.7921 10.4858C80.2921 10.2642 80.8603 10.1534 81.4966 10.1534C82.1444 10.1534 82.7097 10.2642 83.1926 10.4858C83.6784 10.7074 84.0563 11.0156 84.3262 11.4105C84.5961 11.8054 84.7353 12.2628 84.7438 12.7827H82.9753Z" fill="white"/>
<path d="M23.3206 9.54005L15.7729 5.26605C15.5311 5.1525 15.2672 5.09363 15 5.09363C14.7328 5.09363 14.4689 5.1525 14.227 5.26605L6.67933 9.54005C6.44727 9.674 6.254 9.86597 6.1185 10.0971C5.98299 10.3283 5.90989 10.5907 5.90637 10.8586L5.90637 19.3157C5.90989 19.5836 5.98299 19.846 6.1185 20.0772C6.254 20.3083 6.44727 20.5003 6.67933 20.6343L8.67992 21.771C9.20256 22.0798 9.80076 22.2372 10.4077 22.2256C11.8172 22.2256 12.6356 21.3617 12.6356 19.9068L12.6356 11.5861C12.6356 11.5258 12.6117 11.468 12.5691 11.4254C12.5264 11.3827 12.4686 11.3588 12.4083 11.3588H11.4535C11.3932 11.3588 11.3354 11.3827 11.2927 11.4254C11.2501 11.468 11.2261 11.5258 11.2261 11.5861L11.2261 19.9068C11.2261 20.5888 10.5441 21.2253 9.45288 20.6797L7.36135 19.4976C7.33311 19.4764 7.3102 19.4489 7.29441 19.4174C7.27863 19.3858 7.27041 19.351 7.27041 19.3157L7.27041 10.8586C7.27354 10.7746 7.30568 10.6943 7.36135 10.6313L14.8636 6.40276H15.1364L22.6386 10.6313C22.6943 10.6943 22.7264 10.7746 22.7296 10.8586L22.7296 19.3157C22.7296 19.351 22.7213 19.3858 22.7056 19.4174C22.6898 19.4489 22.6669 19.4764 22.6386 19.4976L15.1364 23.7261C15.0949 23.75 15.0479 23.7626 15 23.7626C14.9521 23.7626 14.9051 23.75 14.8636 23.7261L12.9539 22.6349C12.9289 22.6125 12.8965 22.6001 12.863 22.6001C12.8294 22.6001 12.7971 22.6125 12.772 22.6349L11.6353 23.135C11.4989 23.1805 11.3171 23.2259 11.6808 23.4533L14.227 24.8628C14.4567 25.0134 14.7253 25.0936 15 25.0936C15.2746 25.0936 15.5433 25.0134 15.7729 24.8628L23.3206 20.6343C23.5527 20.5003 23.746 20.3083 23.8815 20.0772C24.017 19.846 24.0901 19.5836 24.0936 19.3157L24.0936 10.8586C24.0901 10.5907 24.017 10.3283 23.8815 10.0971C23.746 9.86597 23.5527 9.674 23.3206 9.54005Z" fill="white"/>
<path d="M17.3189 17.9516C15.3183 17.9516 14.909 17.497 14.7272 16.5421C14.7272 16.4939 14.708 16.4476 14.6739 16.4135C14.6398 16.3794 14.5935 16.3603 14.5453 16.3603H13.545C13.4968 16.3603 13.4505 16.3794 13.4164 16.4135C13.3823 16.4476 13.3631 16.4939 13.3631 16.5421C13.3631 17.7698 14.0452 19.2702 17.3189 19.2702C19.6832 19.2702 21.0472 18.3609 21.0472 16.7695C21.0472 15.1781 19.956 14.7234 17.6371 14.4506C15.3183 14.1778 15.0909 13.9959 15.0909 13.4503C15.0909 12.9047 15.2728 12.45 17.0006 12.45C18.7284 12.45 19.1376 12.7683 19.3649 13.7686C19.3755 13.8207 19.4041 13.8675 19.4457 13.9007C19.4872 13.9339 19.5391 13.9515 19.5923 13.9505H20.5471L20.729 13.8595C20.7454 13.8411 20.7579 13.8195 20.7657 13.796C20.7736 13.7725 20.7765 13.7477 20.7744 13.7231C20.638 11.9499 19.4104 11.1314 17.0006 11.1314C14.5908 11.1314 13.5905 12.0408 13.5905 13.4958C13.5905 14.9508 14.8636 15.5418 16.9096 15.7692C18.9557 15.9965 19.5923 16.3148 19.5923 16.8149C19.5923 17.3151 18.9102 17.9516 17.3189 17.9516Z" fill="white"/>
</svg>
