<svg width="100" height="30" viewBox="0 0 100 30" fill="none" xmlns="http://www.w3.org/2000/svg">
<rect width="100" height="30" rx="5" fill="#F07700"/>
<path d="M37.9695 19V10.2727H41.4126C42.0746 10.2727 42.6385 10.3991 43.1044 10.652C43.5703 10.902 43.9254 11.25 44.1697 11.696C44.4169 12.1392 44.5405 12.6506 44.5405 13.2301C44.5405 13.8097 44.4155 14.321 44.1655 14.7642C43.9155 15.2074 43.5533 15.5526 43.0788 15.7997C42.6072 16.0469 42.0362 16.1705 41.3658 16.1705H39.1712V14.6918H41.0675C41.4226 14.6918 41.7152 14.6307 41.9453 14.5085C42.1783 14.3835 42.3516 14.2116 42.4652 13.9929C42.5817 13.7713 42.6399 13.517 42.6399 13.2301C42.6399 12.9403 42.5817 12.6875 42.4652 12.4716C42.3516 12.2528 42.1783 12.0838 41.9453 11.9645C41.7124 11.8423 41.4169 11.7812 41.0589 11.7812H39.8146V19H37.9695ZM48.5568 19.1278C47.8949 19.1278 47.3224 18.9872 46.8395 18.706C46.3594 18.4219 45.9886 18.027 45.7273 17.5213C45.4659 17.0128 45.3352 16.4233 45.3352 15.7528C45.3352 15.0767 45.4659 14.4858 45.7273 13.9801C45.9886 13.4716 46.3594 13.0767 46.8395 12.7955C47.3224 12.5114 47.8949 12.3693 48.5568 12.3693C49.2188 12.3693 49.7898 12.5114 50.2699 12.7955C50.7528 13.0767 51.125 13.4716 51.3864 13.9801C51.6477 14.4858 51.7784 15.0767 51.7784 15.7528C51.7784 16.4233 51.6477 17.0128 51.3864 17.5213C51.125 18.027 50.7528 18.4219 50.2699 18.706C49.7898 18.9872 49.2188 19.1278 48.5568 19.1278ZM48.5653 17.7216C48.8665 17.7216 49.1179 17.6364 49.3196 17.4659C49.5213 17.2926 49.6733 17.0568 49.7756 16.7585C49.8807 16.4602 49.9332 16.1207 49.9332 15.7401C49.9332 15.3594 49.8807 15.0199 49.7756 14.7216C49.6733 14.4233 49.5213 14.1875 49.3196 14.0142C49.1179 13.8409 48.8665 13.7543 48.5653 13.7543C48.2614 13.7543 48.0057 13.8409 47.7983 14.0142C47.5938 14.1875 47.4389 14.4233 47.3338 14.7216C47.2315 15.0199 47.1804 15.3594 47.1804 15.7401C47.1804 16.1207 47.2315 16.4602 47.3338 16.7585C47.4389 17.0568 47.5938 17.2926 47.7983 17.4659C48.0057 17.6364 48.2614 17.7216 48.5653 17.7216ZM52.9588 19V12.4545H54.7188V13.5966H54.7869C54.9063 13.1903 55.1065 12.8835 55.3878 12.6761C55.669 12.4659 55.9929 12.3608 56.3594 12.3608C56.4503 12.3608 56.5483 12.3665 56.6534 12.3778C56.7585 12.3892 56.8509 12.4048 56.9304 12.4247V14.0355C56.8452 14.0099 56.7273 13.9872 56.5767 13.9673C56.4261 13.9474 56.2884 13.9375 56.1634 13.9375C55.8963 13.9375 55.6577 13.9957 55.4474 14.1122C55.2401 14.2259 55.0753 14.3849 54.9531 14.5895C54.8338 14.794 54.7741 15.0298 54.7741 15.2969V19H52.9588ZM61.6786 12.4545V13.8182H57.7369V12.4545H61.6786ZM58.6317 10.8864H60.4471V16.9886C60.4471 17.1562 60.4727 17.2869 60.5238 17.3807C60.5749 17.4716 60.646 17.5355 60.7369 17.5724C60.8306 17.6094 60.9386 17.6278 61.0607 17.6278C61.146 17.6278 61.2312 17.6207 61.3164 17.6065C61.4016 17.5895 61.467 17.5767 61.5124 17.5682L61.7979 18.919C61.707 18.9474 61.5792 18.9801 61.4144 19.017C61.2496 19.0568 61.0494 19.081 60.8136 19.0895C60.3761 19.1065 59.9925 19.0483 59.663 18.9148C59.3363 18.7812 59.082 18.5739 58.9002 18.2926C58.7184 18.0114 58.6289 17.6562 58.6317 17.2273V10.8864ZM66.381 12.4545V13.8182H62.3413V12.4545H66.381ZM63.266 19V11.9815C63.266 11.5071 63.3583 11.1136 63.543 10.8011C63.7305 10.4886 63.9862 10.2543 64.31 10.098C64.6339 9.94176 65.0018 9.86364 65.4137 9.86364C65.6921 9.86364 65.9464 9.88494 66.1765 9.92756C66.4094 9.97017 66.5827 10.0085 66.6964 10.0426L66.3725 11.4062C66.3015 11.3835 66.2134 11.3622 66.1083 11.3423C66.006 11.3224 65.9009 11.3125 65.793 11.3125C65.5259 11.3125 65.3398 11.375 65.2347 11.5C65.1296 11.6222 65.0771 11.794 65.0771 12.0156V19H63.266ZM70.2131 19.1278C69.5511 19.1278 68.9787 18.9872 68.4957 18.706C68.0156 18.4219 67.6449 18.027 67.3835 17.5213C67.1222 17.0128 66.9915 16.4233 66.9915 15.7528C66.9915 15.0767 67.1222 14.4858 67.3835 13.9801C67.6449 13.4716 68.0156 13.0767 68.4957 12.7955C68.9787 12.5114 69.5511 12.3693 70.2131 12.3693C70.875 12.3693 71.446 12.5114 71.9261 12.7955C72.4091 13.0767 72.7812 13.4716 73.0426 13.9801C73.304 14.4858 73.4347 15.0767 73.4347 15.7528C73.4347 16.4233 73.304 17.0128 73.0426 17.5213C72.7812 18.027 72.4091 18.4219 71.9261 18.706C71.446 18.9872 70.875 19.1278 70.2131 19.1278ZM70.2216 17.7216C70.5227 17.7216 70.7741 17.6364 70.9759 17.4659C71.1776 17.2926 71.3295 17.0568 71.4318 16.7585C71.5369 16.4602 71.5895 16.1207 71.5895 15.7401C71.5895 15.3594 71.5369 15.0199 71.4318 14.7216C71.3295 14.4233 71.1776 14.1875 70.9759 14.0142C70.7741 13.8409 70.5227 13.7543 70.2216 13.7543C69.9176 13.7543 69.6619 13.8409 69.4545 14.0142C69.25 14.1875 69.0952 14.4233 68.9901 14.7216C68.8878 15.0199 68.8366 15.3594 68.8366 15.7401C68.8366 16.1207 68.8878 16.4602 68.9901 16.7585C69.0952 17.0568 69.25 17.2926 69.4545 17.4659C69.6619 17.6364 69.9176 17.7216 70.2216 17.7216ZM76.4304 10.2727V19H74.6151V10.2727H76.4304ZM77.8846 19V12.4545H79.6999V19H77.8846ZM78.7965 11.6108C78.5266 11.6108 78.2951 11.5213 78.1019 11.3423C77.9116 11.1605 77.8164 10.9432 77.8164 10.6903C77.8164 10.4403 77.9116 10.2259 78.1019 10.0469C78.2951 9.86506 78.5266 9.77415 78.7965 9.77415C79.0664 9.77415 79.2965 9.86506 79.4869 10.0469C79.68 10.2259 79.7766 10.4403 79.7766 10.6903C79.7766 10.9432 79.68 11.1605 79.4869 11.3423C79.2965 11.5213 79.0664 11.6108 78.7965 11.6108ZM84.1115 19.1278C83.4496 19.1278 82.8771 18.9872 82.3942 18.706C81.9141 18.4219 81.5433 18.027 81.282 17.5213C81.0206 17.0128 80.8899 16.4233 80.8899 15.7528C80.8899 15.0767 81.0206 14.4858 81.282 13.9801C81.5433 13.4716 81.9141 13.0767 82.3942 12.7955C82.8771 12.5114 83.4496 12.3693 84.1115 12.3693C84.7734 12.3693 85.3445 12.5114 85.8246 12.7955C86.3075 13.0767 86.6797 13.4716 86.9411 13.9801C87.2024 14.4858 87.3331 15.0767 87.3331 15.7528C87.3331 16.4233 87.2024 17.0128 86.9411 17.5213C86.6797 18.027 86.3075 18.4219 85.8246 18.706C85.3445 18.9872 84.7734 19.1278 84.1115 19.1278ZM84.12 17.7216C84.4212 17.7216 84.6726 17.6364 84.8743 17.4659C85.076 17.2926 85.228 17.0568 85.3303 16.7585C85.4354 16.4602 85.4879 16.1207 85.4879 15.7401C85.4879 15.3594 85.4354 15.0199 85.3303 14.7216C85.228 14.4233 85.076 14.1875 84.8743 14.0142C84.6726 13.8409 84.4212 13.7543 84.12 13.7543C83.8161 13.7543 83.5604 13.8409 83.353 14.0142C83.1484 14.1875 82.9936 14.4233 82.8885 14.7216C82.7862 15.0199 82.7351 15.3594 82.7351 15.7401C82.7351 16.1207 82.7862 16.4602 82.8885 16.7585C82.9936 17.0568 83.1484 17.2926 83.353 17.4659C83.5604 17.6364 83.8161 17.7216 84.12 17.7216Z" fill="white"/>
<path d="M6 5C5.44771 5 5 5.44772 5 6V24C5 24.5523 5.44772 25 6 25H24.2943C24.6841 25 25.0002 24.684 25.0002 24.2941V24.2941V6C25.0002 5.44772 24.5524 5 24.0002 5H6ZM23.5884 22.5882C23.5884 23.1405 23.1407 23.5882 22.5884 23.5882H7.41177C6.85948 23.5882 6.41177 23.1405 6.41177 22.5882V10.3525C6.41177 9.80025 6.85948 9.35253 7.41177 9.35253H22.5884C23.1407 9.35253 23.5884 9.80025 23.5884 10.3525V22.5882Z" fill="white"/>
<path d="M20.9412 11.5622H9.05884C8.50655 11.5622 8.05884 12.0099 8.05884 12.5622V14.3405C8.05884 14.8928 8.50655 15.3405 9.05884 15.3405H20.9412C21.4935 15.3405 21.9412 14.8928 21.9412 14.3405V12.5622C21.9412 12.0099 21.4935 11.5622 20.9412 11.5622Z" fill="white"/>
<path d="M20.9412 17.1053H17.5295C16.9773 17.1053 16.5295 17.553 16.5295 18.1053V20.7525C16.5295 21.3048 16.9773 21.7525 17.5295 21.7525H20.9412C21.4935 21.7525 21.9412 21.3048 21.9412 20.7525V18.1053C21.9412 17.553 21.4935 17.1053 20.9412 17.1053Z" fill="white"/>
<path d="M14.0587 17.1756H8.41177C8.21685 17.1756 8.05884 17.3336 8.05884 17.5285C8.05884 17.7234 8.21685 17.8814 8.41177 17.8814H14.0587C14.2536 17.8814 14.4117 17.7234 14.4117 17.5285C14.4117 17.3336 14.2536 17.1756 14.0587 17.1756Z" fill="white"/>
<path d="M14.0587 20.9763H8.41179C8.21686 20.9763 8.05884 21.1343 8.05884 21.3292C8.05884 21.5241 8.21686 21.6822 8.41179 21.6822H14.0587C14.2536 21.6822 14.4117 21.5241 14.4117 21.3292C14.4117 21.1343 14.2536 20.9763 14.0587 20.9763Z" fill="white"/>
<path d="M14.0587 19.0761H8.41179C8.21686 19.0761 8.05884 19.2341 8.05884 19.429C8.05884 19.624 8.21686 19.782 8.41179 19.782H14.0587C14.2536 19.782 14.4117 19.624 14.4117 19.429C14.4117 19.2341 14.2536 19.0761 14.0587 19.0761Z" fill="white"/>
</svg>
