<svg width="100" height="30" viewBox="0 0 100 30" fill="none" xmlns="http://www.w3.org/2000/svg">
<rect width="100" height="30" rx="5" fill="#00D8FF"/>
<path d="M39.1003 19V10.2727H42.5435C43.2026 10.2727 43.7651 10.3906 44.231 10.6264C44.6998 10.8594 45.0563 11.1903 45.3006 11.6193C45.5478 12.0455 45.6713 12.5469 45.6713 13.1236C45.6713 13.7031 45.5463 14.2017 45.2963 14.6193C45.0463 15.0341 44.6841 15.3523 44.2097 15.5739C43.7381 15.7955 43.1671 15.9062 42.4966 15.9062H40.1912V14.4233H42.1983C42.5506 14.4233 42.8432 14.375 43.0762 14.2784C43.3091 14.1818 43.4824 14.0369 43.5961 13.8438C43.7125 13.6506 43.7708 13.4105 43.7708 13.1236C43.7708 12.8338 43.7125 12.5895 43.5961 12.3906C43.4824 12.1918 43.3077 12.0412 43.0719 11.9389C42.839 11.8338 42.5449 11.7812 42.1898 11.7812H40.9455V19H39.1003ZM43.8134 15.0284L45.9824 19H43.9455L41.8233 15.0284H43.8134ZM49.8187 19.1278C49.1454 19.1278 48.5659 18.9915 48.0801 18.7188C47.5971 18.4432 47.225 18.054 46.9636 17.5511C46.7022 17.0455 46.5716 16.4474 46.5716 15.7571C46.5716 15.0838 46.7022 14.4929 46.9636 13.9844C47.225 13.4759 47.5929 13.0795 48.0673 12.7955C48.5446 12.5114 49.1042 12.3693 49.7463 12.3693C50.1781 12.3693 50.5801 12.4389 50.9522 12.5781C51.3272 12.7145 51.6539 12.9205 51.9324 13.196C52.2136 13.4716 52.4324 13.8182 52.5886 14.2358C52.7449 14.6506 52.823 15.1364 52.823 15.6932V16.1918H47.296V15.0668H51.1142C51.1142 14.8054 51.0574 14.5739 50.9437 14.3722C50.8301 14.1705 50.6724 14.0128 50.4707 13.8991C50.2718 13.7827 50.0403 13.7244 49.7761 13.7244C49.5005 13.7244 49.2562 13.7884 49.0431 13.9162C48.8329 14.0412 48.6681 14.2102 48.5488 14.4233C48.4295 14.6335 48.3684 14.8679 48.3656 15.1264V16.196C48.3656 16.5199 48.4252 16.7997 48.5446 17.0355C48.6667 17.2713 48.8386 17.4531 49.0602 17.581C49.2818 17.7088 49.5446 17.7727 49.8485 17.7727C50.0502 17.7727 50.2349 17.7443 50.4025 17.6875C50.5701 17.6307 50.7136 17.5455 50.8329 17.4318C50.9522 17.3182 51.0431 17.179 51.1056 17.0142L52.7846 17.125C52.6994 17.5284 52.5247 17.8807 52.2605 18.1818C51.9991 18.4801 51.661 18.7131 51.2463 18.8807C50.8343 19.0455 50.3585 19.1278 49.8187 19.1278ZM55.8741 19.1236C55.4565 19.1236 55.0843 19.0511 54.7576 18.9062C54.4309 18.7585 54.1724 18.5412 53.9821 18.2543C53.7946 17.9645 53.7008 17.6037 53.7008 17.1719C53.7008 16.8082 53.7676 16.5028 53.9011 16.2557C54.0346 16.0085 54.2164 15.8097 54.4466 15.6591C54.6767 15.5085 54.938 15.3949 55.2306 15.3182C55.5261 15.2415 55.8358 15.1875 56.1596 15.1562C56.5403 15.1165 56.8471 15.0795 57.0801 15.0455C57.313 15.0085 57.4821 14.9545 57.5872 14.8835C57.6923 14.8125 57.7449 14.7074 57.7449 14.5682V14.5426C57.7449 14.2727 57.6596 14.0639 57.4892 13.9162C57.3216 13.7685 57.0829 13.6946 56.7733 13.6946C56.4466 13.6946 56.1866 13.767 55.9934 13.9119C55.8002 14.054 55.6724 14.233 55.6099 14.4489L53.9309 14.3125C54.0162 13.9148 54.1838 13.571 54.4338 13.2812C54.6838 12.9886 55.0062 12.7642 55.4011 12.608C55.7988 12.4489 56.2591 12.3693 56.7818 12.3693C57.1454 12.3693 57.4934 12.4119 57.8258 12.4972C58.161 12.5824 58.4579 12.7145 58.7164 12.8935C58.9778 13.0724 59.1838 13.3026 59.3343 13.5838C59.4849 13.8622 59.5602 14.196 59.5602 14.5852V19H57.8386V18.0923H57.7875C57.6824 18.2969 57.5417 18.4773 57.3656 18.6335C57.1895 18.7869 56.9778 18.9077 56.7306 18.9957C56.4835 19.081 56.198 19.1236 55.8741 19.1236ZM56.394 17.8707C56.661 17.8707 56.8968 17.8182 57.1014 17.7131C57.3059 17.6051 57.4664 17.4602 57.5829 17.2784C57.6994 17.0966 57.7576 16.8906 57.7576 16.6605V15.9659C57.7008 16.0028 57.6227 16.0369 57.5233 16.0682C57.4267 16.0966 57.3173 16.1236 57.1951 16.1491C57.073 16.1719 56.9508 16.1932 56.8287 16.2131C56.7065 16.2301 56.5957 16.2457 56.4963 16.2599C56.2832 16.2912 56.0971 16.3409 55.938 16.4091C55.7789 16.4773 55.6554 16.5696 55.5673 16.6861C55.4792 16.7997 55.4352 16.9418 55.4352 17.1122C55.4352 17.3594 55.5247 17.5483 55.7037 17.679C55.8855 17.8068 56.1156 17.8707 56.394 17.8707ZM63.926 19.1278C63.2555 19.1278 62.6788 18.9858 62.1958 18.7017C61.7157 18.4148 61.3464 18.017 61.0879 17.5085C60.8322 17 60.7044 16.4148 60.7044 15.7528C60.7044 15.0824 60.8336 14.4943 61.0922 13.9886C61.3535 13.4801 61.7243 13.0838 62.2044 12.7997C62.6845 12.5128 63.2555 12.3693 63.9174 12.3693C64.4885 12.3693 64.9885 12.473 65.4174 12.6804C65.8464 12.8878 66.1859 13.179 66.4359 13.554C66.6859 13.929 66.8237 14.3693 66.8493 14.875H65.1362C65.0879 14.5483 64.96 14.2855 64.7527 14.0866C64.5481 13.8849 64.2797 13.7841 63.9473 13.7841C63.666 13.7841 63.4203 13.8608 63.21 14.0142C63.0027 14.1648 62.8407 14.3849 62.7243 14.6747C62.6078 14.9645 62.5495 15.3153 62.5495 15.7273C62.5495 16.1449 62.6064 16.5 62.72 16.7926C62.8365 17.0852 62.9998 17.3082 63.21 17.4616C63.4203 17.6151 63.666 17.6918 63.9473 17.6918C64.1547 17.6918 64.3407 17.6491 64.5055 17.5639C64.6731 17.4787 64.8109 17.3551 64.9189 17.1932C65.0297 17.0284 65.1021 16.831 65.1362 16.6009H66.8493C66.8208 17.1009 66.6845 17.5412 66.4402 17.9219C66.1987 18.2997 65.8649 18.5952 65.4387 18.8082C65.0126 19.0213 64.5083 19.1278 63.926 19.1278ZM71.4931 12.4545V13.8182H67.5513V12.4545H71.4931ZM68.4462 10.8864H70.2615V16.9886C70.2615 17.1562 70.2871 17.2869 70.3382 17.3807C70.3894 17.4716 70.4604 17.5355 70.5513 17.5724C70.6451 17.6094 70.753 17.6278 70.8752 17.6278C70.9604 17.6278 71.0456 17.6207 71.1309 17.6065C71.2161 17.5895 71.2814 17.5767 71.3269 17.5682L71.6124 18.919C71.5215 18.9474 71.3936 18.9801 71.2289 19.017C71.0641 19.0568 70.8638 19.081 70.628 19.0895C70.1905 19.1065 69.807 19.0483 69.4775 18.9148C69.1507 18.7812 68.8965 18.5739 68.7147 18.2926C68.5328 18.0114 68.4434 17.6562 68.4462 17.2273V10.8864ZM76.204 10.2727H78.0279V16.358C78.0279 16.9205 77.9015 17.4091 77.6486 17.8239C77.3986 18.2386 77.0506 18.5582 76.6046 18.7827C76.1586 19.0071 75.6401 19.1193 75.0492 19.1193C74.5236 19.1193 74.0463 19.027 73.6174 18.8423C73.1912 18.6548 72.8532 18.3707 72.6032 17.9901C72.3532 17.6065 72.2296 17.125 72.2324 16.5455H74.0691C74.0748 16.7756 74.1216 16.973 74.2097 17.1378C74.3006 17.2997 74.4242 17.4247 74.5804 17.5128C74.7395 17.598 74.927 17.6406 75.1429 17.6406C75.3702 17.6406 75.562 17.5923 75.7182 17.4957C75.8773 17.3963 75.998 17.2514 76.0804 17.0611C76.1628 16.8707 76.204 16.6364 76.204 16.358V10.2727ZM84.2878 12.7827C84.2537 12.4389 84.1074 12.1719 83.8489 11.9815C83.5904 11.7912 83.2395 11.696 82.7963 11.696C82.4952 11.696 82.2409 11.7386 82.0336 11.8239C81.8262 11.9062 81.6671 12.0213 81.5563 12.169C81.4483 12.3168 81.3944 12.4844 81.3944 12.6719C81.3887 12.8281 81.4213 12.9645 81.4924 13.081C81.5662 13.1974 81.6671 13.2983 81.7949 13.3835C81.9228 13.4659 82.0705 13.5384 82.2381 13.6009C82.4057 13.6605 82.5847 13.7116 82.775 13.7543L83.5591 13.9418C83.9398 14.027 84.2892 14.1406 84.6074 14.2827C84.9256 14.4247 85.2012 14.5994 85.4341 14.8068C85.6671 15.0142 85.8475 15.2585 85.9753 15.5398C86.106 15.821 86.1728 16.1435 86.1756 16.5071C86.1728 17.0412 86.0364 17.5043 85.7665 17.8963C85.4995 18.2855 85.1131 18.5881 84.6074 18.804C84.1046 19.017 83.498 19.1236 82.7878 19.1236C82.0833 19.1236 81.4696 19.0156 80.9469 18.7997C80.427 18.5838 80.0208 18.2642 79.7282 17.8409C79.4384 17.4148 79.2864 16.8878 79.2722 16.2599H81.0577C81.0776 16.5526 81.1614 16.7969 81.3091 16.9929C81.4597 17.1861 81.66 17.3324 81.91 17.4318C82.1628 17.5284 82.4483 17.5767 82.7665 17.5767C83.079 17.5767 83.3503 17.5312 83.5804 17.4403C83.8134 17.3494 83.9938 17.223 84.1216 17.0611C84.2495 16.8991 84.3134 16.7131 84.3134 16.5028C84.3134 16.3068 84.2551 16.142 84.1387 16.0085C84.025 15.875 83.8574 15.7614 83.6358 15.6676C83.4171 15.5739 83.1486 15.4886 82.8304 15.4119L81.8801 15.1733C81.1444 14.9943 80.5634 14.7145 80.1373 14.3338C79.7111 13.9531 79.4995 13.4403 79.5023 12.7955C79.4995 12.267 79.6401 11.8054 79.9242 11.4105C80.2111 11.0156 80.6046 10.7074 81.1046 10.4858C81.6046 10.2642 82.1728 10.1534 82.8091 10.1534C83.4569 10.1534 84.0222 10.2642 84.5051 10.4858C84.9909 10.7074 85.3688 11.0156 85.6387 11.4105C85.9086 11.8054 86.0478 12.2628 86.0563 12.7827H84.2878Z" fill="black"/>
<path d="M13.8747 19.0486C14.2414 19.0653 14.6162 19.0773 14.9957 19.0773C15.3791 19.0773 15.7579 19.0693 16.1293 19.0486C15.7579 19.5287 15.3911 19.9535 15.003 20.3583L15.0083 20.353C14.6222 19.9529 14.2514 19.5274 13.902 19.0846L13.8747 19.0486ZM10.0749 18.5151C10.7971 18.6985 11.678 18.8545 12.5769 18.9506L12.6643 18.9579C13.2145 19.7134 13.7706 20.3783 14.3675 21.0038L14.3601 20.9958C13.4859 21.9715 12.3062 22.657 10.9718 22.9031L10.9351 22.9084C10.9324 22.9084 10.9298 22.9084 10.9271 22.9084C10.7617 22.9084 10.6057 22.8677 10.469 22.7957L10.4743 22.7984C9.91948 22.4816 9.67874 21.2699 9.86613 19.7128C9.91081 19.3293 9.98416 18.9259 10.0742 18.5144L10.0749 18.5151ZM19.9331 18.5064C20.0118 18.8225 20.0859 19.2253 20.1385 19.6348L20.1445 19.6921C20.3359 21.2486 20.0999 22.4589 19.5497 22.7824C19.427 22.8504 19.2803 22.8904 19.1242 22.8904C19.1089 22.8904 19.0936 22.8897 19.0782 22.8891H19.0802C17.7111 22.639 16.5321 21.9581 15.6599 20.9945L15.6552 20.9892C16.2414 20.3736 16.7935 19.7101 17.2997 19.0119L17.3384 18.9559C18.3227 18.8532 19.2049 18.6945 20.0645 18.4777L19.9331 18.5058V18.5064ZM10.8544 16.0177C11.0211 16.3444 11.1959 16.6699 11.3879 16.9966C11.5795 17.3216 11.7754 17.639 11.9754 17.9489C11.3966 17.8642 10.8378 17.7575 10.3036 17.6275C10.4536 17.1027 10.6417 16.5592 10.8538 16.0163L10.8544 16.0177ZM19.1422 16.001C19.363 16.5485 19.5504 17.0947 19.7057 17.6242C19.1723 17.7549 18.6087 17.8656 18.0259 17.9489C18.226 17.6362 18.426 17.3141 18.6134 16.984C18.8008 16.6592 18.9762 16.3271 19.1436 16.0003L19.1422 16.001ZM9.41066 12.4339C9.70141 13.4196 10.0135 14.2438 10.3769 15.0387L10.3269 14.9173C10.0162 15.5875 9.70875 16.4071 9.45667 17.2507L9.42199 17.3874C8.95119 17.2427 8.5724 17.1007 8.20363 16.9413L8.28032 16.9706C6.83722 16.3564 5.9036 15.5489 5.9036 14.9087C5.9036 14.2685 6.83722 13.4569 8.28032 12.8454C8.63042 12.6953 9.01454 12.56 9.41066 12.4339ZM20.5733 12.4306C20.9768 12.5553 21.3602 12.6947 21.719 12.8454C23.1621 13.4622 24.0957 14.2685 24.0957 14.9087C24.0917 15.5489 23.1581 16.3584 21.715 16.9713C21.3649 17.1213 20.9815 17.256 20.586 17.3821C20.2926 16.3931 19.9805 15.5695 19.6184 14.7733L19.6691 14.8987C19.9785 14.2291 20.2866 13.4096 20.538 12.566L20.5733 12.4286V12.4306ZM18.0206 11.8684C18.6001 11.9545 19.1582 12.0598 19.6924 12.1912C19.5424 12.718 19.355 13.2595 19.1422 13.8023C18.9755 13.4776 18.8008 13.1501 18.6088 12.824C18.4214 12.4973 18.2213 12.1792 18.0212 11.8691L18.0206 11.8684ZM11.9708 11.8684C11.7707 12.1825 11.5706 12.504 11.3839 12.8354C11.1965 13.1601 11.0211 13.4869 10.8544 13.8137C10.6337 13.2668 10.4463 12.722 10.2909 12.1912C10.8244 12.0665 11.3866 11.9551 11.9701 11.8698L11.9708 11.8684ZM14.9997 11.6564C15.6165 11.6564 16.2307 11.6844 16.8349 11.7337C17.1732 12.2188 17.5018 12.7354 17.8205 13.2835C18.1304 13.817 18.4131 14.3576 18.6688 14.9053C18.412 15.4515 18.1306 15.997 17.8245 16.5305C17.5078 17.0807 17.1803 17.6041 16.8409 18.089C16.234 18.1416 15.6192 18.1703 14.999 18.1703C14.3821 18.1703 13.768 18.141 13.1638 18.093C12.8257 17.6081 12.4956 17.0893 12.1782 16.5432C11.8683 16.0097 11.5855 15.4691 11.3299 14.9213C11.5826 14.3738 11.8681 13.827 12.1742 13.2929C12.4909 12.7427 12.8183 12.2212 13.1578 11.7364C13.7646 11.683 14.3795 11.655 14.9997 11.655V11.6564ZM14.987 9.46837C15.3738 9.86849 15.7446 10.2933 16.0933 10.7361L16.12 10.7714C15.7532 10.7548 15.3784 10.7434 14.999 10.7434C14.6156 10.7434 14.2368 10.7514 13.8653 10.7714C14.2361 10.2913 14.6029 9.86649 14.9917 9.46171L14.9863 9.46704L14.987 9.46837ZM10.9184 6.92628C12.2875 7.17702 13.4659 7.85789 14.3388 8.82085L14.3435 8.82618C13.7573 9.44237 13.2051 10.1059 12.699 10.8054L12.6603 10.8615C11.6767 10.9635 10.7944 11.1209 9.93548 11.3376L10.0662 11.3096C9.97283 10.9015 9.90347 10.506 9.85479 10.1266C9.6634 8.5701 9.89947 7.35974 10.4496 7.03764C10.587 6.97296 10.7477 6.93295 10.9171 6.92761H10.9191L10.9184 6.92628ZM19.0609 6.90961V6.91494C19.0696 6.91494 19.0796 6.91427 19.0902 6.91427C19.2496 6.91427 19.3997 6.95362 19.5317 7.02297L19.5264 7.02031C20.0812 7.3384 20.3219 8.54943 20.1345 10.1072C20.0899 10.4907 20.0165 10.8948 19.9265 11.3069C19.2029 11.1215 18.322 10.9648 17.4231 10.8695L17.3377 10.8621C16.7869 10.1059 16.2307 9.44103 15.6339 8.81484L15.6419 8.82285C16.5161 7.84922 17.6938 7.16368 19.0255 6.91627L19.0629 6.91027L19.0609 6.90961ZM19.0649 6.00133C17.4364 6.24874 16.0266 7.03965 14.997 8.18065L14.9917 8.18666C13.9547 7.04631 12.5449 6.26074 10.9565 6.02267L10.9191 6.01801C10.9104 6.01801 10.8998 6.01801 10.8891 6.01801C10.5617 6.01801 10.2542 6.10403 9.98816 6.25474L9.9975 6.25008C8.85182 6.91094 8.59508 8.97022 9.18659 11.5543C6.64983 12.3379 5 13.5903 5 14.91C5 16.2351 6.6585 17.4908 9.20259 18.2683C8.61575 20.8625 8.87783 22.9251 10.0262 23.5853C10.2782 23.73 10.581 23.8147 10.9031 23.8147C10.9178 23.8147 10.9324 23.8147 10.9465 23.814H10.9444C12.5729 23.5666 13.9827 22.775 15.0123 21.6334L15.0177 21.6274C16.0546 22.7684 17.4644 23.5539 19.0529 23.792L19.0902 23.7967C19.1002 23.7967 19.1129 23.7967 19.1249 23.7967C19.4503 23.7967 19.7564 23.7113 20.0212 23.5626L20.0118 23.5673C21.1568 22.9071 21.4143 20.8478 20.8227 18.263C23.3502 17.4861 25 16.2311 25 14.9093C25 13.5843 23.3415 12.3286 20.7974 11.549C21.3842 8.95755 21.1222 6.89293 19.9738 6.23207C19.7191 6.08603 19.4137 6 19.0882 6C19.0796 6 19.0709 6 19.0622 6H19.0636L19.0649 6.00133ZM16.8582 14.91C16.8582 15.939 16.024 16.7732 14.995 16.7732C13.966 16.7732 13.1318 15.939 13.1318 14.91C13.1318 13.881 13.966 13.0468 14.995 13.0468C15.5098 13.0468 15.9753 13.2555 16.3127 13.5923C16.6502 13.9297 16.8582 14.3952 16.8582 14.91Z" fill="black"/>
</svg>
