<svg width="100" height="30" viewBox="0 0 100 30" fill="none" xmlns="http://www.w3.org/2000/svg">
<rect width="100" height="30" rx="5" fill="#3178C6"/>
<path d="M30.723 11.794V10.2727H37.8906V11.794H35.2188V19H33.3949V11.794H30.723ZM39.4077 21.4545C39.1776 21.4545 38.9616 21.4361 38.7599 21.3991C38.5611 21.3651 38.3963 21.321 38.2656 21.267L38.6747 19.9119C38.8878 19.9773 39.0795 20.0128 39.25 20.0185C39.4233 20.0241 39.5724 19.9844 39.6974 19.8991C39.8253 19.8139 39.929 19.669 40.0085 19.4645L40.1151 19.1875L37.767 12.4545H39.6761L41.0312 17.2614H41.0994L42.4673 12.4545H44.3892L41.8452 19.7074C41.723 20.0597 41.5568 20.3665 41.3466 20.6278C41.1392 20.892 40.8764 21.0952 40.5582 21.2372C40.2401 21.3821 39.8565 21.4545 39.4077 21.4545ZM45.3182 21.4545V12.4545H47.108V13.554H47.1889C47.2685 13.3778 47.3835 13.1989 47.5341 13.017C47.6875 12.8324 47.8864 12.679 48.1307 12.5568C48.3778 12.4318 48.6847 12.3693 49.0511 12.3693C49.5284 12.3693 49.9688 12.4943 50.3722 12.7443C50.7756 12.9915 51.098 13.3651 51.3395 13.8651C51.581 14.3622 51.7017 14.9858 51.7017 15.7358C51.7017 16.4659 51.5838 17.0824 51.348 17.5852C51.1151 18.0852 50.7969 18.4645 50.3935 18.723C49.9929 18.9787 49.544 19.1065 49.0469 19.1065C48.6946 19.1065 48.3949 19.0483 48.1477 18.9318C47.9034 18.8153 47.7031 18.669 47.5469 18.4929C47.3906 18.3139 47.2713 18.1335 47.1889 17.9517H47.1335V21.4545H45.3182ZM47.0952 15.7273C47.0952 16.1165 47.1491 16.456 47.2571 16.7457C47.3651 17.0355 47.5213 17.2614 47.7259 17.4233C47.9304 17.5824 48.179 17.6619 48.4716 17.6619C48.767 17.6619 49.017 17.581 49.2216 17.419C49.4261 17.2543 49.581 17.027 49.6861 16.7372C49.794 16.4446 49.848 16.108 49.848 15.7273C49.848 15.3494 49.7955 15.017 49.6903 14.7301C49.5852 14.4432 49.4304 14.2187 49.2259 14.0568C49.0213 13.8949 48.7699 13.8139 48.4716 13.8139C48.1761 13.8139 47.9261 13.892 47.7216 14.0483C47.5199 14.2045 47.3651 14.4261 47.2571 14.7131C47.1491 15 47.0952 15.3381 47.0952 15.7273ZM55.8949 19.1278C55.2216 19.1278 54.642 18.9915 54.1562 18.7188C53.6733 18.4432 53.3011 18.054 53.0398 17.5511C52.7784 17.0455 52.6477 16.4474 52.6477 15.7571C52.6477 15.0838 52.7784 14.4929 53.0398 13.9844C53.3011 13.4759 53.669 13.0795 54.1435 12.7955C54.6207 12.5114 55.1804 12.3693 55.8224 12.3693C56.2543 12.3693 56.6563 12.4389 57.0284 12.5781C57.4034 12.7145 57.7301 12.9205 58.0085 13.196C58.2898 13.4716 58.5085 13.8182 58.6648 14.2358C58.821 14.6506 58.8991 15.1364 58.8991 15.6932V16.1918H53.3722V15.0668H57.1903C57.1903 14.8054 57.1335 14.5739 57.0199 14.3722C56.9063 14.1705 56.7486 14.0128 56.5469 13.8991C56.348 13.7827 56.1165 13.7244 55.8523 13.7244C55.5767 13.7244 55.3324 13.7884 55.1193 13.9162C54.9091 14.0412 54.7443 14.2102 54.625 14.4233C54.5057 14.6335 54.4446 14.8679 54.4418 15.1264V16.196C54.4418 16.5199 54.5014 16.7997 54.6207 17.0355C54.7429 17.2713 54.9148 17.4531 55.1364 17.581C55.358 17.7088 55.6207 17.7727 55.9247 17.7727C56.1264 17.7727 56.3111 17.7443 56.4787 17.6875C56.6463 17.6307 56.7898 17.5455 56.9091 17.4318C57.0284 17.3182 57.1193 17.179 57.1818 17.0142L58.8608 17.125C58.7756 17.5284 58.6009 17.8807 58.3366 18.1818C58.0753 18.4801 57.7372 18.7131 57.3224 18.8807C56.9105 19.0455 56.4347 19.1278 55.8949 19.1278ZM64.8523 12.7827C64.8182 12.4389 64.6719 12.1719 64.4134 11.9815C64.1548 11.7912 63.804 11.696 63.3608 11.696C63.0597 11.696 62.8054 11.7386 62.598 11.8239C62.3906 11.9062 62.2315 12.0213 62.1207 12.169C62.0128 12.3168 61.9588 12.4844 61.9588 12.6719C61.9531 12.8281 61.9858 12.9645 62.0568 13.081C62.1307 13.1974 62.2315 13.2983 62.3594 13.3835C62.4872 13.4659 62.6349 13.5384 62.8026 13.6009C62.9702 13.6605 63.1491 13.7116 63.3395 13.7543L64.1236 13.9418C64.5043 14.027 64.8537 14.1406 65.1719 14.2827C65.4901 14.4247 65.7656 14.5994 65.9986 14.8068C66.2315 15.0142 66.4119 15.2585 66.5398 15.5398C66.6705 15.821 66.7372 16.1435 66.7401 16.5071C66.7372 17.0412 66.6009 17.5043 66.331 17.8963C66.0639 18.2855 65.6776 18.5881 65.1719 18.804C64.669 19.017 64.0625 19.1236 63.3523 19.1236C62.6477 19.1236 62.0341 19.0156 61.5114 18.7997C60.9915 18.5838 60.5852 18.2642 60.2926 17.8409C60.0028 17.4148 59.8509 16.8878 59.8366 16.2599H61.6222C61.642 16.5526 61.7259 16.7969 61.8736 16.9929C62.0241 17.1861 62.2244 17.3324 62.4744 17.4318C62.7273 17.5284 63.0128 17.5767 63.331 17.5767C63.6435 17.5767 63.9148 17.5312 64.1449 17.4403C64.3778 17.3494 64.5582 17.223 64.6861 17.0611C64.8139 16.8991 64.8778 16.7131 64.8778 16.5028C64.8778 16.3068 64.8196 16.142 64.7031 16.0085C64.5895 15.875 64.4219 15.7614 64.2003 15.6676C63.9815 15.5739 63.7131 15.4886 63.3949 15.4119L62.4446 15.1733C61.7088 14.9943 61.1278 14.7145 60.7017 14.3338C60.2756 13.9531 60.0639 13.4403 60.0668 12.7955C60.0639 12.267 60.2045 11.8054 60.4886 11.4105C60.7756 11.0156 61.169 10.7074 61.669 10.4858C62.169 10.2642 62.7372 10.1534 63.3736 10.1534C64.0213 10.1534 64.5866 10.2642 65.0696 10.4858C65.5554 10.7074 65.9332 11.0156 66.2031 11.4105C66.473 11.8054 66.6122 12.2628 66.6207 12.7827H64.8523ZM70.9045 19.1278C70.234 19.1278 69.6573 18.9858 69.1744 18.7017C68.6942 18.4148 68.3249 18.017 68.0664 17.5085C67.8107 17 67.6829 16.4148 67.6829 15.7528C67.6829 15.0824 67.8121 14.4943 68.0707 13.9886C68.332 13.4801 68.7028 13.0838 69.1829 12.7997C69.663 12.5128 70.234 12.3693 70.896 12.3693C71.467 12.3693 71.967 12.473 72.396 12.6804C72.8249 12.8878 73.1644 13.179 73.4144 13.554C73.6644 13.929 73.8022 14.3693 73.8278 14.875H72.1147C72.0664 14.5483 71.9386 14.2855 71.7312 14.0866C71.5266 13.8849 71.2582 13.7841 70.9258 13.7841C70.6445 13.7841 70.3988 13.8608 70.1886 14.0142C69.9812 14.1648 69.8192 14.3849 69.7028 14.6747C69.5863 14.9645 69.5281 15.3153 69.5281 15.7273C69.5281 16.1449 69.5849 16.5 69.6985 16.7926C69.815 17.0852 69.9783 17.3082 70.1886 17.4616C70.3988 17.6151 70.6445 17.6918 70.9258 17.6918C71.1332 17.6918 71.3192 17.6491 71.484 17.5639C71.6516 17.4787 71.7894 17.3551 71.8974 17.1932C72.0082 17.0284 72.0806 16.831 72.1147 16.6009H73.8278C73.7994 17.1009 73.663 17.5412 73.4187 17.9219C73.1772 18.2997 72.8434 18.5952 72.4173 18.8082C71.9911 19.0213 71.4869 19.1278 70.9045 19.1278ZM74.9901 19V12.4545H76.75V13.5966H76.8182C76.9375 13.1903 77.1378 12.8835 77.419 12.6761C77.7003 12.4659 78.0241 12.3608 78.3906 12.3608C78.4815 12.3608 78.5795 12.3665 78.6847 12.3778C78.7898 12.3892 78.8821 12.4048 78.9616 12.4247V14.0355C78.8764 14.0099 78.7585 13.9872 78.608 13.9673C78.4574 13.9474 78.3196 13.9375 78.1946 13.9375C77.9276 13.9375 77.6889 13.9957 77.4787 14.1122C77.2713 14.2259 77.1065 14.3849 76.9844 14.5895C76.8651 14.794 76.8054 15.0298 76.8054 15.2969V19H74.9901ZM79.9002 19V12.4545H81.7156V19H79.9002ZM80.8121 11.6108C80.5423 11.6108 80.3107 11.5213 80.1175 11.3423C79.9272 11.1605 79.832 10.9432 79.832 10.6903C79.832 10.4403 79.9272 10.2259 80.1175 10.0469C80.3107 9.86506 80.5423 9.77415 80.8121 9.77415C81.082 9.77415 81.3121 9.86506 81.5025 10.0469C81.6957 10.2259 81.7923 10.4403 81.7923 10.6903C81.7923 10.9432 81.6957 11.1605 81.5025 11.3423C81.3121 11.5213 81.082 11.6108 80.8121 11.6108ZM83.1697 21.4545V12.4545H84.9595V13.554H85.0405C85.12 13.3778 85.2351 13.1989 85.3857 13.017C85.5391 12.8324 85.7379 12.679 85.9822 12.5568C86.2294 12.4318 86.5362 12.3693 86.9027 12.3693C87.38 12.3693 87.8203 12.4943 88.2237 12.7443C88.6271 12.9915 88.9496 13.3651 89.1911 13.8651C89.4325 14.3622 89.5533 14.9858 89.5533 15.7358C89.5533 16.4659 89.4354 17.0824 89.1996 17.5852C88.9666 18.0852 88.6484 18.4645 88.245 18.723C87.8445 18.9787 87.3956 19.1065 86.8984 19.1065C86.5462 19.1065 86.2464 19.0483 85.9993 18.9318C85.755 18.8153 85.5547 18.669 85.3984 18.4929C85.2422 18.3139 85.1229 18.1335 85.0405 17.9517H84.9851V21.4545H83.1697ZM84.9467 15.7273C84.9467 16.1165 85.0007 16.456 85.1087 16.7457C85.2166 17.0355 85.3729 17.2614 85.5774 17.4233C85.782 17.5824 86.0305 17.6619 86.3232 17.6619C86.6186 17.6619 86.8686 17.581 87.0732 17.419C87.2777 17.2543 87.4325 17.027 87.5376 16.7372C87.6456 16.4446 87.6996 16.108 87.6996 15.7273C87.6996 15.3494 87.647 15.017 87.5419 14.7301C87.4368 14.4432 87.282 14.2187 87.0774 14.0568C86.8729 13.8949 86.6214 13.8139 86.3232 13.8139C86.0277 13.8139 85.7777 13.892 85.5732 14.0483C85.3714 14.2045 85.2166 14.4261 85.1087 14.7131C85.0007 15 84.9467 15.3381 84.9467 15.7273ZM94.245 12.4545V13.8182H90.3033V12.4545H94.245ZM91.1982 10.8864H93.0135V16.9886C93.0135 17.1562 93.0391 17.2869 93.0902 17.3807C93.1413 17.4716 93.2124 17.5355 93.3033 17.5724C93.397 17.6094 93.505 17.6278 93.6271 17.6278C93.7124 17.6278 93.7976 17.6207 93.8828 17.6065C93.968 17.5895 94.0334 17.5767 94.0788 17.5682L94.3643 18.919C94.2734 18.9474 94.1456 18.9801 93.9808 19.017C93.8161 19.0568 93.6158 19.081 93.38 19.0895C92.9425 19.1065 92.5589 19.0483 92.2294 18.9148C91.9027 18.7812 91.6484 18.5739 91.4666 18.2926C91.2848 18.0114 91.1953 17.6562 91.1982 17.2273V10.8864Z" fill="white"/>
<path d="M5 15V25H25V5H5V15ZM21.1162 14.2025C21.6244 14.3294 22.0113 14.5575 22.3694 14.925C22.5519 15.12 22.825 15.4781 22.8481 15.5663C22.8544 15.5925 21.9856 16.175 21.4581 16.5006C21.4388 16.5137 21.3606 16.4325 21.2756 16.305C21.0188 15.9306 20.7481 15.7681 20.335 15.7387C19.7294 15.6994 19.3388 16.0156 19.3419 16.5463C19.3388 16.6763 19.3681 16.8069 19.4263 16.9206C19.56 17.1975 19.8106 17.3631 20.585 17.6988C22.0175 18.3138 22.6294 18.7206 23.01 19.2969C23.4362 19.9413 23.5306 20.97 23.2444 21.7381C22.9256 22.5681 22.1375 23.1344 21.0306 23.32C20.6888 23.3819 19.875 23.3719 19.5069 23.3037C18.7031 23.1606 17.9412 22.7631 17.4725 22.2425C17.2869 22.0406 16.9287 21.51 16.9519 21.4744C16.9619 21.4612 17.0431 21.4094 17.1344 21.3569C17.2256 21.3044 17.5606 21.1094 17.8769 20.9269L18.4531 20.5919L18.5738 20.7706C18.7431 21.0275 19.1106 21.3794 19.3325 21.4962C19.9706 21.835 20.8463 21.7863 21.2794 21.3988C21.455 21.2525 21.5531 21.0275 21.54 20.8C21.54 20.5688 21.5106 20.465 21.39 20.2919C21.2338 20.0706 20.9181 19.8819 20.0162 19.4913C18.9844 19.045 18.5381 18.7719 18.135 18.3325C17.8813 18.0425 17.6925 17.7012 17.585 17.3331C17.51 17.05 17.4906 16.34 17.5494 16.0569C17.7613 15.0575 18.5163 14.3644 19.6 14.1594C19.9519 14.0912 20.7719 14.1169 21.1169 14.2019L21.1162 14.2025ZM16.4225 15.0394L16.4287 15.8563H13.8244V23.2556H11.9819V15.8563H9.38125V15.0556C9.38125 14.6094 9.39125 14.2387 9.40375 14.2287C9.41375 14.2156 10.9956 14.2094 12.9163 14.2125L16.4125 14.2225L16.4225 15.0394Z" fill="white"/>
</svg>
