<svg width="100" height="30" viewBox="0 0 100 30" fill="none" xmlns="http://www.w3.org/2000/svg">
<rect width="100" height="30" rx="5" fill="black"/>
<path d="M53.0574 10.2727H54.9025V15.9403C54.9025 16.5767 54.7505 17.1335 54.4466 17.6108C54.1454 18.0881 53.7235 18.4602 53.1809 18.7273C52.6383 18.9915 52.0062 19.1236 51.2846 19.1236C50.5602 19.1236 49.9267 18.9915 49.3841 18.7273C48.8414 18.4602 48.4196 18.0881 48.1184 17.6108C47.8173 17.1335 47.6667 16.5767 47.6667 15.9403V10.2727H49.5119V15.7827C49.5119 16.1151 49.5843 16.4105 49.7292 16.669C49.877 16.9276 50.0843 17.1307 50.3514 17.2784C50.6184 17.4261 50.9295 17.5 51.2846 17.5C51.6426 17.5 51.9537 17.4261 52.2179 17.2784C52.4849 17.1307 52.6909 16.9276 52.8358 16.669C52.9835 16.4105 53.0574 16.1151 53.0574 15.7827V10.2727ZM58.2019 15.2159V19H56.3865V12.4545H58.1167V13.6094H58.1934C58.3382 13.2287 58.5811 12.9276 58.9221 12.706C59.263 12.4815 59.6763 12.3693 60.1621 12.3693C60.6167 12.3693 61.013 12.4688 61.351 12.6676C61.6891 12.8665 61.9519 13.1506 62.1394 13.5199C62.3269 13.8864 62.4206 14.3239 62.4206 14.8324V19H60.6053V15.1562C60.6081 14.7557 60.5059 14.4432 60.2985 14.2188C60.0911 13.9915 59.8056 13.8778 59.4419 13.8778C59.1976 13.8778 58.9817 13.9304 58.7942 14.0355C58.6096 14.1406 58.4647 14.294 58.3596 14.4957C58.2573 14.6946 58.2047 14.9347 58.2019 15.2159ZM63.8514 19V12.4545H65.6667V19H63.8514ZM64.7633 11.6108C64.4934 11.6108 64.2619 11.5213 64.0687 11.3423C63.8784 11.1605 63.7832 10.9432 63.7832 10.6903C63.7832 10.4403 63.8784 10.2259 64.0687 10.0469C64.2619 9.86506 64.4934 9.77415 64.7633 9.77415C65.0332 9.77415 65.2633 9.86506 65.4537 10.0469C65.6468 10.2259 65.7434 10.4403 65.7434 10.6903C65.7434 10.9432 65.6468 11.1605 65.4537 11.3423C65.2633 11.5213 65.0332 11.6108 64.7633 11.6108ZM70.6025 12.4545V13.8182H66.6607V12.4545H70.6025ZM67.5556 10.8864H69.3709V16.9886C69.3709 17.1562 69.3965 17.2869 69.4476 17.3807C69.4988 17.4716 69.5698 17.5355 69.6607 17.5724C69.7544 17.6094 69.8624 17.6278 69.9846 17.6278C70.0698 17.6278 70.155 17.6207 70.2402 17.6065C70.3255 17.5895 70.3908 17.5767 70.4363 17.5682L70.7218 18.919C70.6309 18.9474 70.503 18.9801 70.3382 19.017C70.1735 19.0568 69.9732 19.081 69.7374 19.0895C69.2999 19.1065 68.9164 19.0483 68.5868 18.9148C68.2601 18.7812 68.0059 18.5739 67.824 18.2926C67.6422 18.0114 67.5527 17.6562 67.5556 17.2273V10.8864ZM72.9057 21.4545C72.6756 21.4545 72.4597 21.4361 72.258 21.3991C72.0591 21.3651 71.8944 21.321 71.7637 21.267L72.1728 19.9119C72.3858 19.9773 72.5776 20.0128 72.748 20.0185C72.9213 20.0241 73.0705 19.9844 73.1955 19.8991C73.3233 19.8139 73.427 19.669 73.5066 19.4645L73.6131 19.1875L71.2651 12.4545H73.1742L74.5293 17.2614H74.5975L75.9654 12.4545H77.8873L75.3432 19.7074C75.2211 20.0597 75.0549 20.3665 74.8446 20.6278C74.6373 20.892 74.3745 21.0952 74.0563 21.2372C73.7381 21.3821 73.3546 21.4545 72.9057 21.4545Z" fill="white"/>
<path d="M23.8561 18.8561L23.8561 9.52032L15.7749 4.85611V8.43545L18.941 10.2731C19.0664 10.3543 19.0664 10.524 18.941 10.5683L15.1845 12.738C15.0812 12.8044 14.9557 12.8044 14.8524 12.738L11.1033 10.5683C11.0221 10.5314 10.9852 10.4354 11.0221 10.3543C11.0369 10.3174 11.0664 10.2878 11.1033 10.2731L14.2694 8.43545V4.85611L6.14392 9.52032L6.14392 18.8561L9.22879 17.0628V13.3949C9.24355 13.2842 9.33949 13.2104 9.45019 13.2251C9.45757 13.2251 9.47233 13.2251 9.47971 13.2325L13.2288 15.4022C13.3395 15.4613 13.3985 15.572 13.3985 15.6974L13.3985 20.0222C13.3838 20.1329 13.2878 20.2067 13.1771 20.1919C13.1698 20.1919 13.155 20.1919 13.1476 20.1845L9.98156 18.3543L6.89669 20.1476L14.9779 24.8561L23.0664 20.1919L19.9816 18.3985L16.8155 20.2362C16.6979 20.3123 16.5803 20.2457 16.566 20.0972C16.5651 20.0873 16.5646 20.0771 16.5646 20.0664V15.7343C16.5646 15.631 16.6154 15.5333 16.6974 15.466C16.7091 15.4564 16.7214 15.4474 16.7343 15.4391L20.4834 13.2694C20.6089 13.1882 20.7343 13.2694 20.7343 13.4391V17.107L23.8192 18.9004V18.8354L23.8561 18.8561Z" fill="white"/>
</svg>
